<svg id="SvgjsSvg1006" width="823.5" height="660.0000381469727" xmlns="http://www.w3.org/2000/svg" version="1.1" xmlns:xlink="http://www.w3.org/1999/xlink" xmlns:svgjs="http://svgjs.com/svgjs"><defs id="SvgjsDefs1007"><marker id="SvgjsMarker1022" markerWidth="16" markerHeight="12" refX="16" refY="6" viewBox="0 0 16 12" orient="auto" markerUnits="userSpaceOnUse" stroke-dasharray="0,0"><path id="SvgjsPath1023" d="M0,2 L14,6 L0,11 L0,2" fill="#323232" stroke="#323232" stroke-width="2"></path></marker><marker id="SvgjsMarker1032" markerWidth="16" markerHeight="12" refX="16" refY="6" viewBox="0 0 16 12" orient="auto" markerUnits="userSpaceOnUse" stroke-dasharray="0,0"><path id="SvgjsPath1033" d="M0,2 L14,6 L0,11 L0,2" fill="#323232" stroke="#323232" stroke-width="2"></path></marker><marker id="SvgjsMarker1042" markerWidth="16" markerHeight="12" refX="16" refY="6" viewBox="0 0 16 12" orient="auto" markerUnits="userSpaceOnUse" stroke-dasharray="0,0"><path id="SvgjsPath1043" d="M0,2 L14,6 L0,11 L0,2" fill="#323232" stroke="#323232" stroke-width="2"></path></marker><marker id="SvgjsMarker1058" markerWidth="16" markerHeight="12" refX="16" refY="6" viewBox="0 0 16 12" orient="auto" markerUnits="userSpaceOnUse" stroke-dasharray="0,0"><path id="SvgjsPath1059" d="M0,2 L14,6 L0,11 L0,2" fill="#323232" stroke="#323232" stroke-width="2"></path></marker><marker id="SvgjsMarker1062" markerWidth="16" markerHeight="12" refX="16" refY="6" viewBox="0 0 16 12" orient="auto" markerUnits="userSpaceOnUse" stroke-dasharray="0,0"><path id="SvgjsPath1063" d="M0,2 L14,6 L0,11 L0,2" fill="#323232" stroke="#323232" stroke-width="2"></path></marker><marker id="SvgjsMarker1066" markerWidth="16" markerHeight="12" refX="16" refY="6" viewBox="0 0 16 12" orient="auto" markerUnits="userSpaceOnUse" stroke-dasharray="0,0"><path id="SvgjsPath1067" d="M0,2 L14,6 L0,11 L0,2" fill="#323232" stroke="#323232" stroke-width="2"></path></marker><marker id="SvgjsMarker1076" markerWidth="16" markerHeight="12" refX="16" refY="6" viewBox="0 0 16 12" orient="auto" markerUnits="userSpaceOnUse" stroke-dasharray="0,0"><path id="SvgjsPath1077" d="M0,2 L14,6 L0,11 L0,2" fill="#323232" stroke="#323232" stroke-width="2"></path></marker></defs><g id="SvgjsG1008" transform="translate(173.5,24.999998092651367)"><path id="SvgjsPath1009" d="M 0 4Q 0 0 4 0L 234 0Q 238 0 238 4L 238 63Q 238 67 234 67L 4 67Q 0 67 0 63Z" stroke="rgba(50,50,50,1)" stroke-width="2" fill-opacity="1" fill="#e0e0e0"></path><g id="SvgjsG1010"><text id="SvgjsText1011" font-family="&quot;Lucida Console&quot;" text-anchor="middle" font-size="18px" width="218px" fill="#323232" font-weight="400" align="middle" lineHeight="125%" anchor="middle" family="&quot;Lucida Console&quot;" size="18px" weight="400" font-style="" opacity="1" y="20.25" transform="rotate(0)"><tspan id="SvgjsTspan1012" dy="22" x="119"><tspan id="SvgjsTspan1013" style="text-decoration:;">start</tspan></tspan></text></g></g><g id="SvgjsG1014" transform="translate(156.5,149.99999809265137)"><path id="SvgjsPath1015" d="M 0 4Q 0 0 4 0L 268 0Q 272 0 272 4L 272 63Q 272 67 268 67L 4 67Q 0 67 0 63Z" stroke="rgba(50,50,50,1)" stroke-width="2" fill-opacity="1" fill="#e0e0e0"></path><g id="SvgjsG1016"><text id="SvgjsText1017" font-family="&quot;Lucida Console&quot;" text-anchor="middle" font-size="18px" width="252px" fill="#323232" font-weight="400" align="middle" lineHeight="125%" anchor="middle" family="&quot;Lucida Console&quot;" size="18px" weight="400" font-style="" opacity="1" y="20.25" transform="rotate(0)"><tspan id="SvgjsTspan1018" dy="22" x="136"><tspan id="SvgjsTspan1019" style="text-decoration:;">BeanDefinitionReader</tspan></tspan></text></g></g><g id="SvgjsG1020"><path id="SvgjsPath1021" d="M292.5 91.99999809265137L292.5 120.99999809265137L292.5 120.99999809265137L292.5 149.99999809265137" stroke="#323232" stroke-width="2" fill="none" marker-end="url(#SvgjsMarker1022)"></path></g><g id="SvgjsG1024" transform="translate(530.5,149.99999809265137)"><path id="SvgjsPath1025" d="M 0 4Q 0 0 4 0L 234 0Q 238 0 238 4L 238 63Q 238 67 234 67L 4 67Q 0 67 0 63Z" stroke="rgba(50,50,50,1)" stroke-width="2" fill-opacity="1" fill="#e0e0e0"></path><g id="SvgjsG1026"><text id="SvgjsText1027" font-family="&quot;Lucida Console&quot;" text-anchor="middle" font-size="18px" width="218px" fill="#323232" font-weight="400" align="middle" lineHeight="125%" anchor="middle" family="&quot;Lucida Console&quot;" size="18px" weight="400" font-style="" opacity="1" y="20.25" transform="rotate(0)"><tspan id="SvgjsTspan1028" dy="22" x="119"><tspan id="SvgjsTspan1029" style="text-decoration:;">metadata</tspan></tspan></text></g></g><g id="SvgjsG1030"><path id="SvgjsPath1031" d="M428.5 183.49999809265137L479.5 183.49999809265137L479.5 183.49999809265137L530.5 183.49999809265137" stroke="#323232" stroke-width="2" fill="none" marker-end="url(#SvgjsMarker1032)"></path></g><g id="SvgjsG1034" transform="translate(173.5,268.99999809265137)"><path id="SvgjsPath1035" d="M 0 4Q 0 0 4 0L 234 0Q 238 0 238 4L 238 63Q 238 67 234 67L 4 67Q 0 67 0 63Z" stroke="rgba(50,50,50,1)" stroke-width="2" fill-opacity="1" fill="#e0e0e0"></path><g id="SvgjsG1036"><text id="SvgjsText1037" font-family="&quot;Lucida Console&quot;" text-anchor="middle" font-size="18px" width="218px" fill="#323232" font-weight="400" align="middle" lineHeight="125%" anchor="middle" family="&quot;Lucida Console&quot;" size="18px" weight="400" font-style="" opacity="1" y="20.25" transform="rotate(0)"><tspan id="SvgjsTspan1038" dy="22" x="119"><tspan id="SvgjsTspan1039" style="text-decoration:;">BeanDefinition</tspan></tspan></text></g></g><g id="SvgjsG1040"><path id="SvgjsPath1041" d="M649.5 216.99999809265137L649.5 302.49999809265137L411.5 302.49999809265137" stroke="#323232" stroke-width="2" fill="none" marker-end="url(#SvgjsMarker1042)"></path></g><g id="SvgjsG1044" transform="translate(500.5,355.99999809265137)"><path id="SvgjsPath1045" d="M 0 4Q 0 0 4 0L 294 0Q 298 0 298 4L 298 62Q 298 66 294 66L 4 66Q 0 66 0 62Z" stroke="rgba(50,50,50,1)" stroke-width="2" fill-opacity="1" fill="#e0e0e0"></path><g id="SvgjsG1046"><text id="SvgjsText1047" font-family="&quot;Lucida Console&quot;" text-anchor="middle" font-size="18px" width="278px" fill="#323232" font-weight="400" align="middle" lineHeight="125%" anchor="middle" family="&quot;Lucida Console&quot;" size="18px" weight="400" font-style="" opacity="1" y="19.75" transform="rotate(0)"><tspan id="SvgjsTspan1048" dy="22" x="149"><tspan id="SvgjsTspan1049" style="text-decoration:;">BeanFactoryPostProcessor</tspan></tspan></text></g></g><g id="SvgjsG1050" transform="translate(143,441.99999809265137)"><path id="SvgjsPath1051" d="M 0 4Q 0 0 4 0L 295 0Q 299 0 299 4L 299 63Q 299 67 295 67L 4 67Q 0 67 0 63Z" stroke="rgba(50,50,50,1)" stroke-width="2" fill-opacity="1" fill="#e0e0e0"></path><g id="SvgjsG1052"><text id="SvgjsText1053" font-family="&quot;Lucida Console&quot;" text-anchor="middle" font-size="18px" width="279px" fill="#323232" font-weight="400" align="middle" lineHeight="125%" anchor="middle" family="&quot;Lucida Console&quot;" size="18px" weight="400" font-style="" opacity="1" y="20.25" transform="rotate(0)"><tspan id="SvgjsTspan1054" dy="22" x="149.5"><tspan id="SvgjsTspan1055" style="text-decoration:;">BeanDefinitionRegistry</tspan></tspan></text></g></g><g id="SvgjsG1056"><path id="SvgjsPath1057" d="M173.5 302.49999809265137L25 302.49999809265137L25 475.49999809265137L143 475.49999809265137" stroke="#323232" stroke-width="2" fill="none" marker-end="url(#SvgjsMarker1058)"></path></g><g id="SvgjsG1060"><path id="SvgjsPath1061" d="M292.5 441.99999809265137L292.5 388.99999809265137L500.5 388.99999809265137" stroke="#323232" stroke-width="2" fill="none" marker-end="url(#SvgjsMarker1062)"></path></g><g id="SvgjsG1064"><path id="SvgjsPath1065" d="M649.5 421.99999809265137L649.5 475.49999809265137L442 475.49999809265137" stroke="#323232" stroke-width="2" fill="none" marker-end="url(#SvgjsMarker1066)"></path></g><g id="SvgjsG1068" transform="translate(173.5,567.9999980926514)"><path id="SvgjsPath1069" d="M 0 4Q 0 0 4 0L 234 0Q 238 0 238 4L 238 63Q 238 67 234 67L 4 67Q 0 67 0 63Z" stroke="rgba(50,50,50,1)" stroke-width="2" fill-opacity="1" fill="#e0e0e0"></path><g id="SvgjsG1070"><text id="SvgjsText1071" font-family="&quot;Lucida Console&quot;" text-anchor="middle" font-size="18px" width="218px" fill="#323232" font-weight="400" align="middle" lineHeight="125%" anchor="middle" family="&quot;Lucida Console&quot;" size="18px" weight="400" font-style="" opacity="1" y="20.25" transform="rotate(0)"><tspan id="SvgjsTspan1072" dy="22" x="119"><tspan id="SvgjsTspan1073" style="text-decoration:;">end</tspan></tspan></text></g></g><g id="SvgjsG1074"><path id="SvgjsPath1075" d="M292.5 508.99999809265137L292.5 538.4999980926514L292.5 538.4999980926514L292.5 567.9999980926514" stroke="#323232" stroke-width="2" fill="none" marker-end="url(#SvgjsMarker1076)"></path></g></svg>