<svg id="SvgjsSvg1271" width="1214" height="421.0104064941406" xmlns="http://www.w3.org/2000/svg" version="1.1" xmlns:xlink="http://www.w3.org/1999/xlink" xmlns:svgjs="http://svgjs.com/svgjs"><defs id="SvgjsDefs1272"><marker id="SvgjsMarker1291" markerWidth="16" markerHeight="12" refX="16" refY="6" viewBox="0 0 16 12" orient="auto" markerUnits="userSpaceOnUse" stroke-dasharray="0,0"><path id="SvgjsPath1292" d="M0,2 L14,6 L0,11 L0,2" fill="#323232" stroke="#323232" stroke-width="2"></path></marker><marker id="SvgjsMarker1295" markerWidth="16" markerHeight="12" refX="16" refY="6" viewBox="0 0 16 12" orient="auto" markerUnits="userSpaceOnUse" stroke-dasharray="0,0"><path id="SvgjsPath1296" d="M0,2 L14,6 L0,11 L0,2" fill="#323232" stroke="#323232" stroke-width="2"></path></marker><marker id="SvgjsMarker1307" markerWidth="16" markerHeight="12" refX="16" refY="6" viewBox="0 0 16 12" orient="auto" markerUnits="userSpaceOnUse" stroke-dasharray="0,0"><path id="SvgjsPath1308" d="M0,2 L14,6 L0,11 L0,2" fill="#323232" stroke="#323232" stroke-width="2"></path></marker><marker id="SvgjsMarker1311" markerWidth="16" markerHeight="12" refX="16" refY="6" viewBox="0 0 16 12" orient="auto" markerUnits="userSpaceOnUse" stroke-dasharray="0,0"><path id="SvgjsPath1312" d="M0,2 L14,6 L0,11 L0,2" fill="#323232" stroke="#323232" stroke-width="2"></path></marker><marker id="SvgjsMarker1315" markerWidth="16" markerHeight="12" refX="16" refY="6" viewBox="0 0 16 12" orient="auto" markerUnits="userSpaceOnUse" stroke-dasharray="0,0"><path id="SvgjsPath1316" d="M0,2 L14,6 L0,11 L0,2" fill="#323232" stroke="#323232" stroke-width="2"></path></marker></defs><g id="SvgjsG1273" transform="translate(351,25.010406494140625)"><path id="SvgjsPath1274" d="M 0 4Q 0 0 4 0L 234 0Q 238 0 238 4L 238 123Q 238 127 234 127L 4 127Q 0 127 0 123Z" stroke="rgba(50,50,50,1)" stroke-width="2" fill-opacity="1" fill="#9e9e9e"></path><g id="SvgjsG1275"><text id="SvgjsText1276" font-family="&quot;Lucida Console&quot;" text-anchor="middle" font-size="15px" width="218px" fill="#323232" font-weight="400" align="middle" lineHeight="125%" anchor="middle" family="&quot;Lucida Console&quot;" size="15px" weight="400" font-style="" opacity="1" y="43.125" transform="rotate(0)"><tspan id="SvgjsTspan1277" dy="18" x="119"><tspan id="SvgjsTspan1278" style="text-decoration:;">对象监视器</tspan></tspan><tspan id="SvgjsTspan1279" dy="18" x="119"><tspan id="SvgjsTspan1280" style="text-decoration:;">monitor</tspan></tspan></text></g></g><g id="SvgjsG1281" transform="translate(773,25.010406494140625)"><path id="SvgjsPath1282" d="M 0 4Q 0 0 4 0L 234 0Q 238 0 238 4L 238 123Q 238 127 234 127L 4 127Q 0 127 0 123Z" stroke="rgba(50,50,50,1)" stroke-width="2" fill-opacity="1" fill="#9e9e9e"></path><g id="SvgjsG1283"><text id="SvgjsText1284" font-family="&quot;Lucida Console&quot;" text-anchor="middle" font-size="15px" width="218px" fill="#323232" font-weight="400" align="middle" lineHeight="125%" anchor="middle" family="&quot;Lucida Console&quot;" size="15px" weight="400" font-style="" opacity="1" y="43.125" transform="rotate(0)"><tspan id="SvgjsTspan1285" dy="18" x="119"><tspan id="SvgjsTspan1286" style="text-decoration:;">对象</tspan></tspan><tspan id="SvgjsTspan1287" dy="18" x="119"><tspan id="SvgjsTspan1288" style="text-decoration:;">(synchronized保护访问)</tspan></tspan></text></g></g><g id="SvgjsG1289"><path id="SvgjsPath1290" d="M589 88.51040649414062L681 88.51040649414062L681 88.51040649414062L773 88.51040649414062" stroke="#323232" stroke-width="2" fill="none" marker-end="url(#SvgjsMarker1291)"></path></g><g id="SvgjsG1293"><path id="SvgjsPath1294" d="M1011 88.51040649414062L1100 88.51040649414062L1100 88.51040649414062L1189 88.51040649414062" stroke="#323232" stroke-width="2" fill="none" marker-end="url(#SvgjsMarker1295)"></path></g><g id="SvgjsG1297" transform="translate(351,269.0104064941406)"><path id="SvgjsPath1298" d="M 0 4Q 0 0 4 0L 234 0Q 238 0 238 4L 238 123Q 238 127 234 127L 4 127Q 0 127 0 123Z" stroke="rgba(50,50,50,1)" stroke-width="2" fill-opacity="1" fill="#e0e0e0"></path><g id="SvgjsG1299"><text id="SvgjsText1300" font-family="&quot;Lucida Console&quot;" text-anchor="middle" font-size="15px" width="218px" fill="#323232" font-weight="400" align="middle" lineHeight="125%" anchor="middle" family="&quot;Lucida Console&quot;" size="15px" weight="400" font-style="" opacity="1" y="43.125" transform="rotate(0)"><tspan id="SvgjsTspan1301" dy="18" x="119"><tspan id="SvgjsTspan1302" style="text-decoration:;">同步队列</tspan></tspan><tspan id="SvgjsTspan1303" dy="18" x="119"><tspan id="SvgjsTspan1304" style="text-decoration:;">SynchronizedQueue</tspan></tspan></text></g></g><g id="SvgjsG1305"><path id="SvgjsPath1306" d="M143 88.51040649414062L247 88.51040649414062L247 88.51040649414062L351 88.51040649414062" stroke="#323232" stroke-width="2" fill="none" marker-end="url(#SvgjsMarker1307)"></path></g><g id="SvgjsG1309"><path id="SvgjsPath1310" d="M351 332.5104064941406C 253.39999999999998 332.5104064941406 253.39999999999998 88.51040649414062 351 88.51040649414062" stroke="#323232" stroke-width="2" fill="none" marker-end="url(#SvgjsMarker1311)"></path></g><g id="SvgjsG1313"><path id="SvgjsPath1314" d="M589 88.51040649414062C 686.5999999999999 88.51040649414062 686.5999999999999 332.5104064941406 589 332.5104064941406" stroke="#323232" stroke-width="2" fill="none" marker-end="url(#SvgjsMarker1315)"></path></g><g id="SvgjsG1317" transform="translate(165,48.010406494140625)"><path id="SvgjsPath1318" d="M 0 0L 131 0L 131 31L 0 31Z" stroke="none" fill="none"></path><g id="SvgjsG1319"><text id="SvgjsText1320" font-family="&quot;Lucida Console&quot;" text-anchor="middle" font-size="16px" width="131px" fill="#323232" font-weight="400" align="middle" lineHeight="125%" anchor="middle" family="&quot;Lucida Console&quot;" size="16px" weight="400" font-style="" opacity="1" y="3.5" transform="rotate(0)"><tspan id="SvgjsTspan1321" dy="20" x="65.5"><tspan id="SvgjsTspan1322" style="text-decoration:;">Monitor.Enter</tspan></tspan></text></g></g><g id="SvgjsG1323" transform="translate(605,50.010406494140625)"><path id="SvgjsPath1324" d="M 0 0L 161 0L 161 27L 0 27Z" stroke="none" fill="none"></path><g id="SvgjsG1325"><text id="SvgjsText1326" font-family="&quot;Lucida Console&quot;" text-anchor="middle" font-size="16px" width="161px" fill="#323232" font-weight="400" align="middle" lineHeight="125%" anchor="middle" family="&quot;Lucida Console&quot;" size="16px" weight="400" font-style="" opacity="1" y="1.5" transform="rotate(0)"><tspan id="SvgjsTspan1327" dy="20" x="80.5"><tspan id="SvgjsTspan1328" style="text-decoration:;">Monitor.Enter成功</tspan></tspan></text></g></g><g id="SvgjsG1329" transform="translate(1044,48.010406494140625)"><path id="SvgjsPath1330" d="M 0 0L 131 0L 131 31L 0 31Z" stroke="none" fill="none"></path><g id="SvgjsG1331"><text id="SvgjsText1332" font-family="&quot;Lucida Console&quot;" text-anchor="middle" font-size="16px" width="131px" fill="#323232" font-weight="400" align="middle" lineHeight="125%" anchor="middle" family="&quot;Lucida Console&quot;" size="16px" weight="400" font-style="" opacity="1" y="3.5" transform="rotate(0)"><tspan id="SvgjsTspan1333" dy="20" x="65.5"><tspan id="SvgjsTspan1334" style="text-decoration:;">Monitor.Exit</tspan></tspan></text></g></g><g id="SvgjsG1335" transform="translate(682,233.01040649414062)"><path id="SvgjsPath1336" d="M 0 0L 161 0L 161 27L 0 27Z" stroke="none" fill="none"></path><g id="SvgjsG1337"><text id="SvgjsText1338" font-family="&quot;Lucida Console&quot;" text-anchor="middle" font-size="16px" width="161px" fill="#323232" font-weight="400" align="middle" lineHeight="125%" anchor="middle" family="&quot;Lucida Console&quot;" size="16px" weight="400" font-style="" opacity="1" y="1.5" transform="rotate(0)"><tspan id="SvgjsTspan1339" dy="20" x="80.5"><tspan id="SvgjsTspan1340" style="text-decoration:;">Monitor.Enter失败</tspan></tspan></text></g></g><g id="SvgjsG1341" transform="translate(25,228.01040649414062)"><path id="SvgjsPath1342" d="M 0 0L 259 0L 259 37L 0 37Z" stroke="none" fill="none"></path><g id="SvgjsG1343"><text id="SvgjsText1344" font-family="&quot;Lucida Console&quot;" text-anchor="middle" font-size="16px" width="259px" fill="#323232" font-weight="400" align="middle" lineHeight="125%" anchor="middle" family="&quot;Lucida Console&quot;" size="16px" weight="400" font-style="" opacity="1" y="6.5" transform="rotate(0)"><tspan id="SvgjsTspan1345" dy="20" x="129.5"><tspan id="SvgjsTspan1346" style="text-decoration:;">Monitor.Exit后，通知线程出队</tspan></tspan></text></g></g></svg>