<svg id="SvgjsSvg1094" width="1654.5000610351562" height="527" xmlns="http://www.w3.org/2000/svg" version="1.1" xmlns:xlink="http://www.w3.org/1999/xlink" xmlns:svgjs="http://svgjs.com/svgjs"><defs id="SvgjsDefs1095"><marker id="SvgjsMarker1146" markerWidth="14" markerHeight="12" refX="16" refY="6" viewBox="0 0 14 12" orient="auto" markerUnits="userSpaceOnUse" stroke-dasharray="0,0"><path id="SvgjsPath1147" d="M1,1 L14,6 L1,11L1,1" fill="#ffffff" stroke="#323232" stroke-width="2"></path></marker><marker id="SvgjsMarker1150" markerWidth="14" markerHeight="12" refX="16" refY="6" viewBox="0 0 14 12" orient="auto" markerUnits="userSpaceOnUse" stroke-dasharray="0,0"><path id="SvgjsPath1151" d="M1,1 L14,6 L1,11L1,1" fill="#ffffff" stroke="#323232" stroke-width="2"></path></marker><marker id="SvgjsMarker1154" markerWidth="20" markerHeight="12" refX="20" refY="6" viewBox="0 0 20 12" orient="auto" markerUnits="userSpaceOnUse" stroke-dasharray="0,0"><path id="SvgjsPath1155" d="M2,6 L10,2 L18,6 L10,10L2,6" fill="#323232" stroke="#323232" stroke-width="2"></path></marker><marker id="SvgjsMarker1208" markerWidth="14" markerHeight="12" refX="16" refY="6" viewBox="0 0 14 12" orient="auto" markerUnits="userSpaceOnUse" stroke-dasharray="0,0"><path id="SvgjsPath1209" d="M1,1 L14,6 L1,11L1,1" fill="#ffffff" stroke="#323232" stroke-width="2"></path></marker><marker id="SvgjsMarker1212" markerWidth="14" markerHeight="12" refX="16" refY="6" viewBox="0 0 14 12" orient="auto" markerUnits="userSpaceOnUse" stroke-dasharray="0,0"><path id="SvgjsPath1213" d="M1,1 L14,6 L1,11L1,1" fill="#ffffff" stroke="#323232" stroke-width="2"></path></marker><marker id="SvgjsMarker1224" markerWidth="16" markerHeight="12" refX="16" refY="6" viewBox="0 0 16 12" orient="auto" markerUnits="userSpaceOnUse" stroke-dasharray="0,0"><path id="SvgjsPath1225" d="M0,2 L14,6 L0,11 L0,2" fill="#323232" stroke="#323232" stroke-width="2"></path></marker></defs><g id="SvgjsG1096" transform="translate(1177.5,88.99999237060547)"><path id="SvgjsPath1097" d="M 0 0L 452 0L 452 413L 0 413Z" stroke="rgba(50,50,50,1)" stroke-width="2" fill-opacity="1" fill="#9e9e9e"></path><g id="SvgjsG1098"><text id="SvgjsText1099" font-family="微软雅黑" text-anchor="middle" font-size="13px" width="432px" fill="#323232" font-weight="400" align="middle" lineHeight="125%" anchor="middle" family="微软雅黑" size="13px" weight="400" font-style="" opacity="1" y="196.875" transform="rotate(0)"></text></g></g><g id="SvgjsG1100" transform="translate(410.1666564941406,24.99999237060547)"><path id="SvgjsPath1101" d="M 0 4Q 0 0 4 0L 316.66668701171875 0Q 320.66668701171875 0 320.66668701171875 4L 320.66668701171875 115.33333587646484Q 320.66668701171875 119.33333587646484 316.66668701171875 119.33333587646484L 4 119.33333587646484Q 0 119.33333587646484 0 115.33333587646484Z" stroke="rgba(50,50,50,1)" stroke-width="2" fill-opacity="1" fill="#ffffff"></path><path id="SvgjsPath1102" d="M 0 30L 320.66668701171875 30" stroke="rgba(50,50,50,1)" stroke-width="2" fill="none"></path><path id="SvgjsPath1103" d="M 0 0L 320.66668701171875 0L 320.66668701171875 119.33333587646484L 0 119.33333587646484Z" stroke="none" fill="none"></path><g id="SvgjsG1104"><text id="SvgjsText1105" font-family="&quot;Lucida Console&quot;" text-anchor="middle" font-size="13px" width="301px" fill="#323232" font-weight="700" align="middle" lineHeight="125%" anchor="middle" family="&quot;Lucida Console&quot;" size="13px" weight="700" font-style="" opacity="1" y="5.375" transform="rotate(0)"><tspan id="SvgjsTspan1106" dy="16" x="160.5"><tspan id="SvgjsTspan1107" style="text-decoration:;">MediaPlayer</tspan></tspan></text></g><g id="SvgjsG1108"><text id="SvgjsText1109" font-family="&quot;Lucida Console&quot;" text-anchor="start" font-size="13px" width="301px" fill="#323232" font-weight="400" align="middle" lineHeight="125%" anchor="start" family="&quot;Lucida Console&quot;" size="13px" weight="400" font-style="" opacity="1" y="65.04166793823242" transform="rotate(0)"><tspan id="SvgjsTspan1110" dy="16" x="10"><tspan id="SvgjsTspan1111" style="text-decoration:;">+ play(String type, String name):void</tspan></tspan></text></g></g><g id="SvgjsG1112" transform="translate(451,352.6666564941406)"><path id="SvgjsPath1113" d="M 0 4Q 0 0 4 0L 235 0Q 239 0 239 4L 239 91Q 239 95 235 95L 4 95Q 0 95 0 91Z" stroke="rgba(50,50,50,1)" stroke-width="2" fill-opacity="1" fill="#ffffff"></path><path id="SvgjsPath1114" d="M 0 30L 239 30M 0 60L 239 60" stroke="rgba(50,50,50,1)" stroke-width="2" fill="none"></path><path id="SvgjsPath1115" d="M 0 0L 239 0L 239 95L 0 95Z" stroke="none" fill="none"></path><g id="SvgjsG1116"><text id="SvgjsText1117" font-family="&quot;Lucida Console&quot;" text-anchor="middle" font-size="13px" width="219px" fill="#323232" font-weight="700" align="middle" lineHeight="125%" anchor="middle" family="&quot;Lucida Console&quot;" size="13px" weight="700" font-style="" opacity="1" y="5.375" transform="rotate(0)"><tspan id="SvgjsTspan1118" dy="16" x="119.5"><tspan id="SvgjsTspan1119" style="text-decoration:;">Player</tspan></tspan></text></g><g id="SvgjsG1120"><text id="SvgjsText1121" font-family="&quot;Lucida Console&quot;" text-anchor="start" font-size="13px" width="219px" fill="#323232" font-weight="400" align="middle" lineHeight="125%" anchor="start" family="&quot;Lucida Console&quot;" size="13px" weight="400" font-style="" opacity="1" y="35.375" transform="rotate(0)"><tspan id="SvgjsTspan1122" dy="16" x="10"><tspan id="SvgjsTspan1123" style="text-decoration:;">+ adapter: PlayerAdapter</tspan></tspan></text></g><g id="SvgjsG1124"><text id="SvgjsText1125" font-family="&quot;Lucida Console&quot;" text-anchor="start" font-size="13px" width="219px" fill="#323232" font-weight="400" align="middle" lineHeight="125%" anchor="start" family="&quot;Lucida Console&quot;" size="13px" weight="400" font-style="" opacity="1" y="65.375" transform="rotate(0)"><tspan id="SvgjsTspan1126" dy="16" x="10"><tspan id="SvgjsTspan1127" style="text-decoration:;">+ play(String,String):void</tspan></tspan></text></g></g><g id="SvgjsG1128" transform="translate(806,246.99999237060547)"><path id="SvgjsPath1129" d="M 0 4Q 0 0 4 0L 295 0Q 299 0 299 4L 299 93Q 299 97 295 97L 4 97Q 0 97 0 93Z" stroke="rgba(50,50,50,1)" stroke-width="2" fill-opacity="1" fill="#00ffff"></path><path id="SvgjsPath1130" d="M 0 30L 299 30M 0 64L 299 64" stroke="rgba(50,50,50,1)" stroke-width="2" fill="none"></path><path id="SvgjsPath1131" d="M 0 0L 299 0L 299 97L 0 97Z" stroke="none" fill="none"></path><g id="SvgjsG1132"><text id="SvgjsText1133" font-family="&quot;Lucida Console&quot;" text-anchor="middle" font-size="13px" width="279px" fill="#323232" font-weight="700" align="middle" lineHeight="125%" anchor="middle" family="&quot;Lucida Console&quot;" size="13px" weight="700" font-style="" opacity="1" y="5.375" transform="rotate(0)"><tspan id="SvgjsTspan1134" dy="16" x="149.5"><tspan id="SvgjsTspan1135" style="text-decoration:;">PlayerAdapter</tspan></tspan></text></g><g id="SvgjsG1136"><text id="SvgjsText1137" font-family="&quot;Lucida Console&quot;" text-anchor="start" font-size="13px" width="279px" fill="#323232" font-weight="400" align="middle" lineHeight="125%" anchor="start" family="&quot;Lucida Console&quot;" size="13px" weight="400" font-style="" opacity="1" y="36.375" transform="rotate(0)"><tspan id="SvgjsTspan1138" dy="16" x="10"><tspan id="SvgjsTspan1139" style="text-decoration:;">+ player: AdvanceMediaPlater</tspan></tspan></text></g><g id="SvgjsG1140"><text id="SvgjsText1141" font-family="&quot;Lucida Console&quot;" text-anchor="start" font-size="13px" width="279px" fill="#323232" font-weight="400" align="middle" lineHeight="125%" anchor="start" family="&quot;Lucida Console&quot;" size="13px" weight="400" font-style="" opacity="1" y="71.875" transform="rotate(0)"><tspan id="SvgjsTspan1142" dy="16" x="10"><tspan id="SvgjsTspan1143" style="text-decoration:;">+ play(String,String):void</tspan></tspan></text></g></g><g id="SvgjsG1144"><path id="SvgjsPath1145" d="M570.5 352.6666564941406L570.5 248.49999237060547L570.5 248.49999237060547L570.5 144.3333282470703" stroke="#323232" stroke-width="2" fill="none" marker-end="url(#SvgjsMarker1146)"></path></g><g id="SvgjsG1148"><path id="SvgjsPath1149" d="M955.5 246.99999237060547L955.5 84.66666030883789L730.8333435058594 84.66666030883789" stroke="#323232" stroke-width="2" fill="none" marker-end="url(#SvgjsMarker1150)"></path></g><g id="SvgjsG1152"><path id="SvgjsPath1153" d="M806 295.49999237060547L748 295.49999237060547L748 400.1666564941406L690 400.1666564941406" stroke="#323232" stroke-width="2" fill="none" marker-end="url(#SvgjsMarker1154)"></path></g><g id="SvgjsG1156" transform="translate(1307,126.66665649414062)"><path id="SvgjsPath1157" d="M 0 4Q 0 0 4 0L 189 0Q 193 0 193 4L 193 99.33333587646484Q 193 103.33333587646484 189 103.33333587646484L 4 103.33333587646484Q 0 103.33333587646484 0 99.33333587646484Z" stroke="rgba(50,50,50,1)" stroke-width="2" fill-opacity="1" fill="#ffffff"></path><path id="SvgjsPath1158" d="M 0 30L 193 30" stroke="rgba(50,50,50,1)" stroke-width="2" fill="none"></path><path id="SvgjsPath1159" d="M 0 0L 193 0L 193 103.33333587646484L 0 103.33333587646484Z" stroke="none" fill="none"></path><g id="SvgjsG1160"><text id="SvgjsText1161" font-family="&quot;Lucida Console&quot;" text-anchor="middle" font-size="13px" width="173px" fill="#323232" font-weight="700" align="middle" lineHeight="125%" anchor="middle" family="&quot;Lucida Console&quot;" size="13px" weight="700" font-style="" opacity="1" y="5.375" transform="rotate(0)"><tspan id="SvgjsTspan1162" dy="16" x="96.5"><tspan id="SvgjsTspan1163" style="text-decoration:;">AdvanceMediaPlayer</tspan></tspan></text></g><g id="SvgjsG1164"><text id="SvgjsText1165" font-family="&quot;Lucida Console&quot;" text-anchor="start" font-size="13px" width="173px" fill="#323232" font-weight="400" align="middle" lineHeight="125%" anchor="start" family="&quot;Lucida Console&quot;" size="13px" weight="400" font-style="" opacity="1" y="49.04166793823242" transform="rotate(0)"><tspan id="SvgjsTspan1166" dy="16" x="10"><tspan id="SvgjsTspan1167" style="text-decoration:;">+ playVlc():void</tspan></tspan><tspan id="SvgjsTspan1168" dy="16" x="10"><tspan id="SvgjsTspan1169" style="text-decoration:;">+ playMp4():void</tspan></tspan></text></g></g><g id="SvgjsG1170" transform="translate(1223,352.6666564941406)"><path id="SvgjsPath1171" d="M 0 4Q 0 0 4 0L 146 0Q 150 0 150 4L 150 116.33333587646484Q 150 120.33333587646484 146 120.33333587646484L 4 120.33333587646484Q 0 120.33333587646484 0 116.33333587646484Z" stroke="rgba(50,50,50,1)" stroke-width="2" fill-opacity="1" fill="#ffffff"></path><path id="SvgjsPath1172" d="M 0 30L 150 30M 0 60L 150 60" stroke="rgba(50,50,50,1)" stroke-width="2" fill="none"></path><path id="SvgjsPath1173" d="M 0 0L 150 0L 150 120.33333587646484L 0 120.33333587646484Z" stroke="none" fill="none"></path><g id="SvgjsG1174"><text id="SvgjsText1175" font-family="&quot;Lucida Console&quot;" text-anchor="middle" font-size="13px" width="130px" fill="#323232" font-weight="700" align="middle" lineHeight="125%" anchor="middle" family="&quot;Lucida Console&quot;" size="13px" weight="700" font-style="" opacity="1" y="5.375" transform="rotate(0)"><tspan id="SvgjsTspan1176" dy="16" x="75"><tspan id="SvgjsTspan1177" style="text-decoration:;">Mp4Player</tspan></tspan></text></g><g id="SvgjsG1178"><text id="SvgjsText1179" font-family="&quot;Lucida Console&quot;" text-anchor="start" font-size="13px" width="130px" fill="#323232" font-weight="400" align="middle" lineHeight="125%" anchor="start" family="&quot;Lucida Console&quot;" size="13px" weight="400" font-style="" opacity="1" y="35.375" transform="rotate(0)"></text></g><g id="SvgjsG1180"><text id="SvgjsText1181" font-family="&quot;Lucida Console&quot;" text-anchor="start" font-size="13px" width="130px" fill="#323232" font-weight="400" align="middle" lineHeight="125%" anchor="start" family="&quot;Lucida Console&quot;" size="13px" weight="400" font-style="" opacity="1" y="58.375" transform="rotate(0)"><tspan id="SvgjsTspan1182" dy="16" x="10"><tspan id="SvgjsTspan1183" style="text-decoration:;"> </tspan></tspan><tspan id="SvgjsTspan1184" dy="16" x="10"><tspan id="SvgjsTspan1185" style="text-decoration:;">+ playVlc():void</tspan></tspan><tspan id="SvgjsTspan1186" dy="16" x="10"><tspan id="SvgjsTspan1187" style="text-decoration:;">+ playMp4():void</tspan></tspan></text></g></g><g id="SvgjsG1188" transform="translate(1434,352.6666564941406)"><path id="SvgjsPath1189" d="M 0 4Q 0 0 4 0L 146 0Q 150 0 150 4L 150 116.33333587646484Q 150 120.33333587646484 146 120.33333587646484L 4 120.33333587646484Q 0 120.33333587646484 0 116.33333587646484Z" stroke="rgba(50,50,50,1)" stroke-width="2" fill-opacity="1" fill="#ffffff"></path><path id="SvgjsPath1190" d="M 0 30L 150 30M 0 60L 150 60" stroke="rgba(50,50,50,1)" stroke-width="2" fill="none"></path><path id="SvgjsPath1191" d="M 0 0L 150 0L 150 120.33333587646484L 0 120.33333587646484Z" stroke="none" fill="none"></path><g id="SvgjsG1192"><text id="SvgjsText1193" font-family="&quot;Lucida Console&quot;" text-anchor="middle" font-size="13px" width="130px" fill="#323232" font-weight="700" align="middle" lineHeight="125%" anchor="middle" family="&quot;Lucida Console&quot;" size="13px" weight="700" font-style="" opacity="1" y="5.375" transform="rotate(0)"><tspan id="SvgjsTspan1194" dy="16" x="75"><tspan id="SvgjsTspan1195" style="text-decoration:;">VlcPlayer</tspan></tspan></text></g><g id="SvgjsG1196"><text id="SvgjsText1197" font-family="&quot;Lucida Console&quot;" text-anchor="start" font-size="13px" width="130px" fill="#323232" font-weight="400" align="middle" lineHeight="125%" anchor="start" family="&quot;Lucida Console&quot;" size="13px" weight="400" font-style="" opacity="1" y="35.375" transform="rotate(0)"></text></g><g id="SvgjsG1198"><text id="SvgjsText1199" font-family="&quot;Lucida Console&quot;" text-anchor="start" font-size="13px" width="130px" fill="#323232" font-weight="400" align="middle" lineHeight="125%" anchor="start" family="&quot;Lucida Console&quot;" size="13px" weight="400" font-style="" opacity="1" y="58.375" transform="rotate(0)"><tspan id="SvgjsTspan1200" dy="16" x="10"><tspan id="SvgjsTspan1201" style="text-decoration:;"> </tspan></tspan><tspan id="SvgjsTspan1202" dy="16" x="10"><tspan id="SvgjsTspan1203" style="text-decoration:;">+ playVlc():void</tspan></tspan><tspan id="SvgjsTspan1204" dy="16" x="10"><tspan id="SvgjsTspan1205" style="text-decoration:;">+ playMp4():void</tspan></tspan></text></g></g><g id="SvgjsG1206"><path id="SvgjsPath1207" d="M1298 352.6666564941406L1298 291.33332443237305L1403.5 291.33332443237305L1403.5 229.99999237060547" stroke="#323232" stroke-width="2" fill="none" marker-end="url(#SvgjsMarker1208)"></path></g><g id="SvgjsG1210"><path id="SvgjsPath1211" d="M1509 352.6666564941406L1509 291.33332443237305L1403.5 291.33332443237305L1403.5 229.99999237060547" stroke="#323232" stroke-width="2" fill="none" marker-end="url(#SvgjsMarker1212)"></path></g><g id="SvgjsG1214"><path id="SvgjsPath1215" d="M1105 295.49999237060547L1141.25 295.49999237060547L1141.25 295.49999237060547L1177.5 295.49999237060547" stroke-dasharray="8,5" stroke="#323232" stroke-width="2" fill="none"></path></g><g id="SvgjsG1216" transform="translate(24.999984741210938,202.99999237060547)"><path id="SvgjsPath1217" d="M 0 4Q 0 0 4 0L 176 0Q 180 0 180 4L 180 115.33333587646484Q 180 119.33333587646484 176 119.33333587646484L 4 119.33333587646484Q 0 119.33333587646484 0 115.33333587646484Z" stroke="rgba(50,50,50,1)" stroke-width="2" fill-opacity="1" fill="#bbdefb"></path><g id="SvgjsG1218"><text id="SvgjsText1219" font-family="&quot;Lucida Console&quot;" text-anchor="middle" font-size="13px" width="160px" fill="#323232" font-weight="400" align="middle" lineHeight="125%" anchor="middle" family="&quot;Lucida Console&quot;" size="13px" weight="400" font-style="" opacity="1" y="50.04166793823242" transform="rotate(0)"><tspan id="SvgjsTspan1220" dy="16" x="90"><tspan id="SvgjsTspan1221" style="text-decoration:;">Client</tspan></tspan></text></g></g><g id="SvgjsG1222"><path id="SvgjsPath1223" d="M204.99998474121094 262.6666603088379L307.5833206176758 262.6666603088379L307.5833206176758 84.66666030883789L410.1666564941406 84.66666030883789" stroke="#323232" stroke-width="2" fill="none" marker-end="url(#SvgjsMarker1224)"></path></g><g id="SvgjsG1226" transform="translate(1299,92.66665649414062)"><path id="SvgjsPath1227" d="M 0 0L 223 0L 223 34L 0 34Z" stroke="none" fill="none"></path><g id="SvgjsG1228"><text id="SvgjsText1229" font-family="楷体" text-anchor="middle" font-size="18px" width="223px" fill="#ffffff" font-weight="400" align="middle" lineHeight="125%" anchor="middle" family="楷体" size="18px" weight="400" font-style="" opacity="1" y="3.75" transform="rotate(0)"><tspan id="SvgjsTspan1230" dy="22" x="111.5"><tspan id="SvgjsTspan1231" style="text-decoration:;">旧接口模块</tspan></tspan></text></g></g></svg>