<svg id="SvgjsSvg1324" width="1017" height="382" xmlns="http://www.w3.org/2000/svg" version="1.1" xmlns:xlink="http://www.w3.org/1999/xlink" xmlns:svgjs="http://svgjs.com/svgjs"><defs id="SvgjsDefs1325"><marker id="SvgjsMarker1370" markerWidth="14" markerHeight="12" refX="16" refY="6" viewBox="0 0 14 12" orient="auto" markerUnits="userSpaceOnUse" stroke-dasharray="0,0"><path id="SvgjsPath1371" d="M1,1 L14,6 L1,11L1,1" fill="#ffffff" stroke="#323232" stroke-width="2"></path></marker><marker id="SvgjsMarker1374" markerWidth="14" markerHeight="12" refX="16" refY="6" viewBox="0 0 14 12" orient="auto" markerUnits="userSpaceOnUse" stroke-dasharray="0,0"><path id="SvgjsPath1375" d="M1,1 L14,6 L1,11L1,1" fill="#ffffff" stroke="#323232" stroke-width="2"></path></marker><marker id="SvgjsMarker1378" markerWidth="20" markerHeight="12" refX="0" refY="6" viewBox="0 0 20 12" orient="auto" markerUnits="userSpaceOnUse" stroke-dasharray="0,0"><path id="SvgjsPath1379" d="M2,6 L10,2 L18,6 L10,10L2,6" fill="#323232" stroke="#323232" stroke-width="2"></path></marker><marker id="SvgjsMarker1380" markerWidth="16" markerHeight="12" refX="16" refY="6" viewBox="0 0 16 12" orient="auto" markerUnits="userSpaceOnUse" stroke-dasharray="0,0"><path id="SvgjsPath1381" d="M0,2 L14,6 L0,11 L0,2" fill="#323232" stroke="#323232" stroke-width="2"></path></marker><marker id="SvgjsMarker1392" markerWidth="16" markerHeight="16" refX="3" refY="8" viewBox="0 0 16 16" orient="auto" markerUnits="userSpaceOnUse" stroke-dasharray="0,0"><circle id="SvgjsCircle1393" r="4" cx="8" cy="8" fill="#323232" stroke="#323232" stroke-width="2"></circle></marker><marker id="SvgjsMarker1394" markerWidth="16" markerHeight="12" refX="16" refY="6" viewBox="0 0 16 12" orient="auto" markerUnits="userSpaceOnUse" stroke-dasharray="0,0"><path id="SvgjsPath1395" d="M0,2 L14,6 L0,11 L0,2" fill="#323232" stroke="#323232" stroke-width="2"></path></marker></defs><g id="SvgjsG1326" transform="translate(267,25)"><path id="SvgjsPath1327" d="M 0 4Q 0 0 4 0L 231 0Q 235 0 235 4L 235 56Q 235 60 231 60L 4 60Q 0 60 0 56Z" stroke="rgba(50,50,50,1)" stroke-width="2" fill-opacity="1" fill="#ffffff"></path><path id="SvgjsPath1328" d="M 0 30L 235 30" stroke="rgba(50,50,50,1)" stroke-width="2" fill="none"></path><path id="SvgjsPath1329" d="M 0 0L 235 0L 235 60L 0 60Z" stroke="none" fill="none"></path><g id="SvgjsG1330"><text id="SvgjsText1331" font-family="&quot;Lucida Console&quot;" text-anchor="middle" font-size="15px" width="215px" fill="#323232" font-weight="700" align="middle" lineHeight="125%" anchor="middle" family="&quot;Lucida Console&quot;" size="15px" weight="700" font-style="" opacity="1" y="3.625" transform="rotate(0)"><tspan id="SvgjsTspan1332" dy="18" x="117.5"><tspan id="SvgjsTspan1333" style="text-decoration:;">PrintText</tspan></tspan></text></g><g id="SvgjsG1334"><text id="SvgjsText1335" font-family="&quot;Lucida Console&quot;" text-anchor="start" font-size="15px" width="215px" fill="#323232" font-weight="400" align="middle" lineHeight="125%" anchor="start" family="&quot;Lucida Console&quot;" size="15px" weight="400" font-style="" opacity="1" y="33.625" transform="rotate(0)"><tspan id="SvgjsTspan1336" dy="18" x="10"><tspan id="SvgjsTspan1337" style="text-decoration:;">+ print(String):void</tspan></tspan></text></g></g><g id="SvgjsG1338" transform="translate(25,207)"><path id="SvgjsPath1339" d="M 0 4Q 0 0 4 0L 235 0Q 239 0 239 4L 239 118Q 239 122 235 122L 4 122Q 0 122 0 118Z" stroke="rgba(50,50,50,1)" stroke-width="2" fill-opacity="1" fill="#ffffff"></path><path id="SvgjsPath1340" d="M 0 30L 239 30M 0 60L 239 60" stroke="rgba(50,50,50,1)" stroke-width="2" fill="none"></path><path id="SvgjsPath1341" d="M 0 0L 239 0L 239 122L 0 122Z" stroke="none" fill="none"></path><g id="SvgjsG1342"><text id="SvgjsText1343" font-family="&quot;Lucida Console&quot;" text-anchor="middle" font-size="16px" width="219px" fill="#323232" font-weight="700" align="middle" lineHeight="125%" anchor="middle" family="&quot;Lucida Console&quot;" size="16px" weight="700" font-style="" opacity="1" y="3" transform="rotate(0)"><tspan id="SvgjsTspan1344" dy="20" x="119.5"><tspan id="SvgjsTspan1345" style="text-decoration:;">PrintAsciiText</tspan></tspan></text></g><g id="SvgjsG1346"><text id="SvgjsText1347" font-family="&quot;Lucida Console&quot;" text-anchor="start" font-size="16px" width="219px" fill="#323232" font-weight="400" align="middle" lineHeight="125%" anchor="start" family="&quot;Lucida Console&quot;" size="16px" weight="400" font-style="" opacity="1" y="33" transform="rotate(0)"></text></g><g id="SvgjsG1348"><text id="SvgjsText1349" font-family="&quot;Lucida Console&quot;" text-anchor="start" font-size="16px" width="219px" fill="#323232" font-weight="400" align="middle" lineHeight="125%" anchor="start" family="&quot;Lucida Console&quot;" size="16px" weight="400" font-style="" opacity="1" y="63" transform="rotate(0)"><tspan id="SvgjsTspan1350" dy="20" x="10"><tspan id="SvgjsTspan1351" style="text-decoration:;">+ print(String):void</tspan></tspan></text></g></g><g id="SvgjsG1352" transform="translate(502,207)"><path id="SvgjsPath1353" d="M 0 4Q 0 0 4 0L 235 0Q 239 0 239 4L 239 118Q 239 122 235 122L 4 122Q 0 122 0 118Z" stroke="rgba(50,50,50,1)" stroke-width="2" fill-opacity="1" fill="#ffffff"></path><path id="SvgjsPath1354" d="M 0 30L 239 30M 0 60L 239 60" stroke="rgba(50,50,50,1)" stroke-width="2" fill="none"></path><path id="SvgjsPath1355" d="M 0 0L 239 0L 239 122L 0 122Z" stroke="none" fill="none"></path><g id="SvgjsG1356"><text id="SvgjsText1357" font-family="&quot;Lucida Console&quot;" text-anchor="middle" font-size="16px" width="219px" fill="#323232" font-weight="700" align="middle" lineHeight="125%" anchor="middle" family="&quot;Lucida Console&quot;" size="16px" weight="700" font-style="" opacity="1" y="3" transform="rotate(0)"><tspan id="SvgjsTspan1358" dy="20" x="119.5"><tspan id="SvgjsTspan1359" style="text-decoration:;">PrintTextDecorator</tspan></tspan></text></g><g id="SvgjsG1360"><text id="SvgjsText1361" font-family="&quot;Lucida Console&quot;" text-anchor="start" font-size="16px" width="219px" fill="#323232" font-weight="400" align="middle" lineHeight="125%" anchor="start" family="&quot;Lucida Console&quot;" size="16px" weight="400" font-style="" opacity="1" y="33" transform="rotate(0)"><tspan id="SvgjsTspan1362" dy="20" x="10"><tspan id="SvgjsTspan1363" style="text-decoration:;">+ inner: PrintText</tspan></tspan></text></g><g id="SvgjsG1364"><text id="SvgjsText1365" font-family="&quot;Lucida Console&quot;" text-anchor="start" font-size="16px" width="219px" fill="#323232" font-weight="400" align="middle" lineHeight="125%" anchor="start" family="&quot;Lucida Console&quot;" size="16px" weight="400" font-style="" opacity="1" y="63" transform="rotate(0)"><tspan id="SvgjsTspan1366" dy="20" x="10"><tspan id="SvgjsTspan1367" style="text-decoration:;">+ print(String):void</tspan></tspan></text></g></g><g id="SvgjsG1368"><path id="SvgjsPath1369" d="M144.5 207L144.5 146L384.5 146L384.5 85" stroke="#323232" stroke-width="2" fill="none" marker-end="url(#SvgjsMarker1370)"></path></g><g id="SvgjsG1372"><path id="SvgjsPath1373" d="M621.5 207L621.5 146L384.5 146L384.5 85" stroke="#323232" stroke-width="2" fill="none" marker-end="url(#SvgjsMarker1374)"></path></g><g id="SvgjsG1376"><path id="SvgjsPath1377" d="M741 268L771 268L771 55L502 55" stroke="#323232" stroke-width="2" fill="none" marker-start="url(#SvgjsMarker1378)" marker-end="url(#SvgjsMarker1380)"></path></g><g id="SvgjsG1382" transform="translate(810,320)"><path id="SvgjsPath1383" d="M 0 0L 166 0L 182 16L 182 37L 0 37L 0 0Z" stroke="rgba(50,50,50,1)" stroke-width="2" fill-opacity="1" fill="#ffffff"></path><path id="SvgjsPath1384" d="M 166 0L 166 16L 182 16" stroke="rgba(50,50,50,1)" stroke-width="2" fill-opacity="1" fill="#ffffff"></path><path id="SvgjsPath1385" d="M 0 0L 166 0L 182 16L 182 37L 0 37L 0 0Z" stroke="rgba(50,50,50,1)" stroke-width="2" fill="none"></path><g id="SvgjsG1386"><text id="SvgjsText1387" font-family="楷体" text-anchor="middle" font-size="13px" width="162px" fill="#323232" font-weight="400" align="middle" lineHeight="125%" anchor="middle" family="楷体" size="13px" weight="400" font-style="" opacity="1" y="8.875" transform="rotate(0)"><tspan id="SvgjsTspan1388" dy="16" x="91"><tspan id="SvgjsTspan1389" style="text-decoration:;">装饰器的拓展功能</tspan></tspan></text></g></g><g id="SvgjsG1390"><path id="SvgjsPath1391" d="M741 295L773.5 295L773.5 339L806 339" stroke="#323232" stroke-width="2" fill="none" marker-start="url(#SvgjsMarker1392)" marker-end="url(#SvgjsMarker1394)"></path></g></svg>