<svg id="SvgjsSvg1396" width="983" height="388" xmlns="http://www.w3.org/2000/svg" version="1.1" xmlns:xlink="http://www.w3.org/1999/xlink" xmlns:svgjs="http://svgjs.com/svgjs"><defs id="SvgjsDefs1397"><marker id="SvgjsMarker1448" markerWidth="14" markerHeight="12" refX="16" refY="6" viewBox="0 0 14 12" orient="auto" markerUnits="userSpaceOnUse" stroke-dasharray="0,0"><path id="SvgjsPath1449" d="M1,1 L14,6 L1,11L1,1" fill="#ffffff" stroke="#323232" stroke-width="2"></path></marker><marker id="SvgjsMarker1452" markerWidth="14" markerHeight="12" refX="16" refY="6" viewBox="0 0 14 12" orient="auto" markerUnits="userSpaceOnUse" stroke-dasharray="0,0"><path id="SvgjsPath1453" d="M1,1 L14,6 L1,11L1,1" fill="#ffffff" stroke="#323232" stroke-width="2"></path></marker><marker id="SvgjsMarker1456" markerWidth="20" markerHeight="12" refX="0" refY="6" viewBox="0 0 20 12" orient="auto" markerUnits="userSpaceOnUse" stroke-dasharray="0,0"><path id="SvgjsPath1457" d="M2,6 L10,2 L18,6 L10,10L2,6" fill="#323232" stroke="#323232" stroke-width="2"></path></marker><marker id="SvgjsMarker1458" markerWidth="16" markerHeight="12" refX="16" refY="6" viewBox="0 0 16 12" orient="auto" markerUnits="userSpaceOnUse" stroke-dasharray="0,0"><path id="SvgjsPath1459" d="M0,2 L14,6 L0,11 L0,2" fill="#323232" stroke="#323232" stroke-width="2"></path></marker><marker id="SvgjsMarker1472" markerWidth="16" markerHeight="16" refX="3" refY="8" viewBox="0 0 16 16" orient="auto" markerUnits="userSpaceOnUse" stroke-dasharray="0,0"><circle id="SvgjsCircle1473" r="4" cx="8" cy="8" fill="#323232" stroke="#323232" stroke-width="2"></circle></marker><marker id="SvgjsMarker1474" markerWidth="16" markerHeight="12" refX="16" refY="6" viewBox="0 0 16 12" orient="auto" markerUnits="userSpaceOnUse" stroke-dasharray="0,0"><path id="SvgjsPath1475" d="M0,2 L14,6 L0,11 L0,2" fill="#323232" stroke="#323232" stroke-width="2"></path></marker></defs><g id="SvgjsG1398" transform="translate(267,25)"><path id="SvgjsPath1399" d="M 0 4Q 0 0 4 0L 231 0Q 235 0 235 4L 235 56Q 235 60 231 60L 4 60Q 0 60 0 56Z" stroke="rgba(50,50,50,1)" stroke-width="2" fill-opacity="1" fill="#ffffff"></path><path id="SvgjsPath1400" d="M 0 30L 235 30" stroke="rgba(50,50,50,1)" stroke-width="2" fill="none"></path><path id="SvgjsPath1401" d="M 0 0L 235 0L 235 60L 0 60Z" stroke="none" fill="none"></path><g id="SvgjsG1402"><text id="SvgjsText1403" font-family="&quot;Lucida Console&quot;" text-anchor="middle" font-size="15px" width="215px" fill="#323232" font-weight="700" align="middle" lineHeight="125%" anchor="middle" family="&quot;Lucida Console&quot;" size="15px" weight="700" font-style="" opacity="1" y="3.625" transform="rotate(0)"><tspan id="SvgjsTspan1404" dy="18" x="117.5"><tspan id="SvgjsTspan1405" style="text-decoration:;">Business</tspan></tspan></text></g><g id="SvgjsG1406"><text id="SvgjsText1407" font-family="&quot;Lucida Console&quot;" text-anchor="start" font-size="15px" width="215px" fill="#323232" font-weight="400" align="middle" lineHeight="125%" anchor="start" family="&quot;Lucida Console&quot;" size="15px" weight="400" font-style="" opacity="1" y="33.625" transform="rotate(0)"><tspan id="SvgjsTspan1408" dy="18" x="10"><tspan id="SvgjsTspan1409" style="text-decoration:;">+ rent():void</tspan></tspan></text></g></g><g id="SvgjsG1410" transform="translate(25,207)"><path id="SvgjsPath1411" d="M 0 4Q 0 0 4 0L 235 0Q 239 0 239 4L 239 118Q 239 122 235 122L 4 122Q 0 122 0 118Z" stroke="rgba(50,50,50,1)" stroke-width="2" fill-opacity="1" fill="#ffffff"></path><path id="SvgjsPath1412" d="M 0 30L 239 30M 0 60L 239 60" stroke="rgba(50,50,50,1)" stroke-width="2" fill="none"></path><path id="SvgjsPath1413" d="M 0 0L 239 0L 239 122L 0 122Z" stroke="none" fill="none"></path><g id="SvgjsG1414"><text id="SvgjsText1415" font-family="&quot;Lucida Console&quot;" text-anchor="middle" font-size="16px" width="219px" fill="#323232" font-weight="700" align="middle" lineHeight="125%" anchor="middle" family="&quot;Lucida Console&quot;" size="16px" weight="700" font-style="" opacity="1" y="3" transform="rotate(0)"><tspan id="SvgjsTspan1416" dy="20" x="119.5"><tspan id="SvgjsTspan1417" style="text-decoration:;">Landlord</tspan></tspan></text></g><g id="SvgjsG1418"><text id="SvgjsText1419" font-family="&quot;Lucida Console&quot;" text-anchor="start" font-size="16px" width="219px" fill="#323232" font-weight="400" align="middle" lineHeight="125%" anchor="start" family="&quot;Lucida Console&quot;" size="16px" weight="400" font-style="" opacity="1" y="33" transform="rotate(0)"></text></g><g id="SvgjsG1420"><text id="SvgjsText1421" font-family="&quot;Lucida Console&quot;" text-anchor="start" font-size="16px" width="219px" fill="#323232" font-weight="400" align="middle" lineHeight="125%" anchor="start" family="&quot;Lucida Console&quot;" size="16px" weight="400" font-style="" opacity="1" y="63" transform="rotate(0)"><tspan id="SvgjsTspan1422" dy="20" x="10"><tspan id="SvgjsTspan1423" style="text-decoration:;">+ rent():void</tspan></tspan></text></g></g><g id="SvgjsG1424" transform="translate(502,207)"><path id="SvgjsPath1425" d="M 0 4Q 0 0 4 0L 238 0Q 242 0 242 4L 242 152Q 242 156 238 156L 4 156Q 0 156 0 152Z" stroke="rgba(50,50,50,1)" stroke-width="2" fill-opacity="1" fill="#ffffff"></path><path id="SvgjsPath1426" d="M 0 30L 242 30M 0 60L 242 60" stroke="rgba(50,50,50,1)" stroke-width="2" fill="none"></path><path id="SvgjsPath1427" d="M 0 0L 242 0L 242 156L 0 156Z" stroke="none" fill="none"></path><g id="SvgjsG1428"><text id="SvgjsText1429" font-family="&quot;Lucida Console&quot;" text-anchor="middle" font-size="16px" width="222px" fill="#323232" font-weight="700" align="middle" lineHeight="125%" anchor="middle" family="&quot;Lucida Console&quot;" size="16px" weight="700" font-style="" opacity="1" y="3" transform="rotate(0)"><tspan id="SvgjsTspan1430" dy="20" x="121"><tspan id="SvgjsTspan1431" style="text-decoration:;">LandlordProxy</tspan></tspan></text></g><g id="SvgjsG1432"><text id="SvgjsText1433" font-family="&quot;Lucida Console&quot;" text-anchor="start" font-size="16px" width="222px" fill="#323232" font-weight="400" align="middle" lineHeight="125%" anchor="start" family="&quot;Lucida Console&quot;" size="16px" weight="400" font-style="" opacity="1" y="33" transform="rotate(0)"><tspan id="SvgjsTspan1434" dy="20" x="10"><tspan id="SvgjsTspan1435" style="text-decoration:;">+ landlord: Business</tspan></tspan></text></g><g id="SvgjsG1436"><text id="SvgjsText1437" font-family="&quot;Lucida Console&quot;" text-anchor="start" font-size="16px" width="222px" fill="#323232" font-weight="400" align="middle" lineHeight="125%" anchor="start" family="&quot;Lucida Console&quot;" size="16px" weight="400" font-style="" opacity="1" y="58" transform="rotate(0)"><tspan id="SvgjsTspan1438" dy="20" x="10"><tspan id="SvgjsTspan1439" style="text-decoration:;"> </tspan></tspan><tspan id="SvgjsTspan1440" dy="20" x="10"><tspan id="SvgjsTspan1441" style="text-decoration:;">+ look():void</tspan></tspan><tspan id="SvgjsTspan1442" dy="20" x="10"><tspan id="SvgjsTspan1443" style="text-decoration:;">+ rent():void</tspan></tspan><tspan id="SvgjsTspan1444" dy="20" x="10"><tspan id="SvgjsTspan1445" style="text-decoration:;">+success():void</tspan></tspan></text></g></g><g id="SvgjsG1446"><path id="SvgjsPath1447" d="M144.5 207L144.5 146L384.5 146L384.5 85" stroke="#323232" stroke-width="2" fill="none" marker-end="url(#SvgjsMarker1448)"></path></g><g id="SvgjsG1450"><path id="SvgjsPath1451" d="M623 207L623 146L384.5 146L384.5 85" stroke="#323232" stroke-width="2" fill="none" marker-end="url(#SvgjsMarker1452)"></path></g><g id="SvgjsG1454"><path id="SvgjsPath1455" d="M744 281.2021428571429L774 281.2021428571429L774 55L502 55" stroke="#323232" stroke-width="2" fill="none" marker-start="url(#SvgjsMarker1456)" marker-end="url(#SvgjsMarker1458)"></path></g><g id="SvgjsG1460" transform="translate(810,320)"><path id="SvgjsPath1461" d="M 0 0L 132 0L 148 16L 148 43L 0 43L 0 0Z" stroke="rgba(50,50,50,1)" stroke-width="2" fill-opacity="1" fill="#ffffff"></path><path id="SvgjsPath1462" d="M 132 0L 132 16L 148 16" stroke="rgba(50,50,50,1)" stroke-width="2" fill-opacity="1" fill="#ffffff"></path><path id="SvgjsPath1463" d="M 0 0L 132 0L 148 16L 148 43L 0 43L 0 0Z" stroke="rgba(50,50,50,1)" stroke-width="2" fill="none"></path><g id="SvgjsG1464"><text id="SvgjsText1465" font-family="楷体" text-anchor="middle" font-size="13px" width="128px" fill="#323232" font-weight="400" align="middle" lineHeight="125%" anchor="middle" family="楷体" size="13px" weight="400" font-style="" opacity="1" y="3.875" transform="rotate(0)"><tspan id="SvgjsTspan1466" dy="16" x="74"><tspan id="SvgjsTspan1467" style="text-decoration:;">代理不仅代理租房，</tspan></tspan><tspan id="SvgjsTspan1468" dy="16" x="74"><tspan id="SvgjsTspan1469" style="text-decoration:;">还帮忙看房和交易</tspan></tspan></text></g></g><g id="SvgjsG1470"><path id="SvgjsPath1471" d="M744 314.04571428571427L775 314.04571428571427L775 339L806 339" stroke="#323232" stroke-width="2" fill="none" marker-start="url(#SvgjsMarker1472)" marker-end="url(#SvgjsMarker1474)"></path></g></svg>