<svg id="SvgjsSvg1232" width="770" height="412" xmlns="http://www.w3.org/2000/svg" version="1.1" xmlns:xlink="http://www.w3.org/1999/xlink" xmlns:svgjs="http://svgjs.com/svgjs"><defs id="SvgjsDefs1233"><marker id="SvgjsMarker1250" markerWidth="14" markerHeight="12" refX="16" refY="6" viewBox="0 0 14 12" orient="auto" markerUnits="userSpaceOnUse" stroke-dasharray="0,0"><path id="SvgjsPath1251" d="M1,1 L14,6 L1,11L1,1" fill="#ffffff" stroke="#323232" stroke-width="2"></path></marker><marker id="SvgjsMarker1264" markerWidth="14" markerHeight="12" refX="16" refY="6" viewBox="0 0 14 12" orient="auto" markerUnits="userSpaceOnUse" stroke-dasharray="0,0"><path id="SvgjsPath1265" d="M1,1 L14,6 L1,11L1,1" fill="#ffffff" stroke="#323232" stroke-width="2"></path></marker></defs><g id="SvgjsG1234" transform="translate(207,25)"><path id="SvgjsPath1235" d="M 0 4Q 0 0 4 0L 236 0Q 240 0 240 4L 240 117Q 240 121 236 121L 4 121Q 0 121 0 117Z" stroke="rgba(50,50,50,1)" stroke-width="2" fill-opacity="1" fill="#e0e0e0"></path><g id="SvgjsG1236"><text id="SvgjsText1237" font-family="&quot;Lucida Console&quot;" text-anchor="middle" font-size="19px" width="220px" fill="#323232" font-weight="400" align="middle" lineHeight="125%" anchor="middle" family="&quot;Lucida Console&quot;" size="19px" weight="400" font-style="" opacity="1" y="46.625" transform="rotate(0)"><tspan id="SvgjsTspan1238" dy="23" x="120"><tspan id="SvgjsTspan1239" style="text-decoration:;">Component</tspan></tspan></text></g></g><g id="SvgjsG1240" transform="translate(25,266)"><path id="SvgjsPath1241" d="M 0 4Q 0 0 4 0L 236 0Q 240 0 240 4L 240 117Q 240 121 236 121L 4 121Q 0 121 0 117Z" stroke="rgba(50,50,50,1)" stroke-width="2" fill-opacity="1" fill="#e0e0e0"></path><g id="SvgjsG1242"><text id="SvgjsText1243" font-family="&quot;Lucida Console&quot;" text-anchor="middle" font-size="19px" width="220px" fill="#323232" font-weight="400" align="middle" lineHeight="125%" anchor="middle" family="&quot;Lucida Console&quot;" size="19px" weight="400" font-style="" opacity="1" y="34.625" transform="rotate(0)"><tspan id="SvgjsTspan1244" dy="23" x="120"><tspan id="SvgjsTspan1245" style="text-decoration:;">ComponentImpl</tspan></tspan><tspan id="SvgjsTspan1246" dy="23" x="120"><tspan id="SvgjsTspan1247" style="text-decoration:;">(组件的初始实现)</tspan></tspan></text></g></g><g id="SvgjsG1248"><path id="SvgjsPath1249" d="M145 266L145 206L327 206L327 146" stroke="#323232" stroke-width="2" fill="none" marker-end="url(#SvgjsMarker1250)"></path></g><g id="SvgjsG1252" transform="translate(505,266)"><path id="SvgjsPath1253" d="M 0 4Q 0 0 4 0L 236 0Q 240 0 240 4L 240 117Q 240 121 236 121L 4 121Q 0 121 0 117Z" stroke="rgba(50,50,50,1)" stroke-width="2" fill-opacity="1" fill="#e0e0e0"></path><g id="SvgjsG1254"><text id="SvgjsText1255" font-family="&quot;Lucida Console&quot;" text-anchor="middle" font-size="19px" width="220px" fill="#323232" font-weight="400" align="middle" lineHeight="125%" anchor="middle" family="&quot;Lucida Console&quot;" size="19px" weight="400" font-style="" opacity="1" y="34.625" transform="rotate(0)"><tspan id="SvgjsTspan1256" dy="23" x="120"><tspan id="SvgjsTspan1257" style="text-decoration:;">Decorator </tspan></tspan><tspan id="SvgjsTspan1258" dy="23" x="120"><tspan id="SvgjsTspan1259" style="text-decoration:;">(组件的拓展功能)</tspan></tspan></text></g></g><g id="SvgjsG1260"><path id="SvgjsPath1261" d="M265 326.5L385 326.5L385 326.5L505 326.5" stroke-dasharray="8,5" stroke="#323232" stroke-width="2" fill="none"></path></g><g id="SvgjsG1262"><path id="SvgjsPath1263" d="M625 266L625 85.5L447 85.5" stroke="#323232" stroke-width="2" fill="none" marker-end="url(#SvgjsMarker1264)"></path></g></svg>