<svg id="SvgjsSvg1078" width="1838.3333740234375" height="679" xmlns="http://www.w3.org/2000/svg" version="1.1" xmlns:xlink="http://www.w3.org/1999/xlink" xmlns:svgjs="http://svgjs.com/svgjs"><defs id="SvgjsDefs1079"><marker id="SvgjsMarker1102" markerWidth="16" markerHeight="12" refX="16" refY="6" viewBox="0 0 16 12" orient="auto" markerUnits="userSpaceOnUse" stroke-dasharray="0,0"><path id="SvgjsPath1103" d="M0,2 L14,6 L0,11 L0,2" fill="#323232" stroke="#323232" stroke-width="2"></path></marker><marker id="SvgjsMarker1118" markerWidth="16" markerHeight="12" refX="16" refY="6" viewBox="0 0 16 12" orient="auto" markerUnits="userSpaceOnUse" stroke-dasharray="0,0"><path id="SvgjsPath1119" d="M0,2 L14,6 L0,11 L0,2" fill="#323232" stroke="#323232" stroke-width="2"></path></marker><marker id="SvgjsMarker1122" markerWidth="16" markerHeight="12" refX="16" refY="6" viewBox="0 0 16 12" orient="auto" markerUnits="userSpaceOnUse" stroke-dasharray="0,0"><path id="SvgjsPath1123" d="M0,2 L14,6 L0,11 L0,2" fill="#323232" stroke="#323232" stroke-width="2"></path></marker><marker id="SvgjsMarker1134" markerWidth="16" markerHeight="12" refX="16" refY="6" viewBox="0 0 16 12" orient="auto" markerUnits="userSpaceOnUse" stroke-dasharray="0,0"><path id="SvgjsPath1135" d="M0,2 L14,6 L0,11 L0,2" fill="#323232" stroke="#323232" stroke-width="2"></path></marker><marker id="SvgjsMarker1146" markerWidth="16" markerHeight="12" refX="16" refY="6" viewBox="0 0 16 12" orient="auto" markerUnits="userSpaceOnUse" stroke-dasharray="0,0"><path id="SvgjsPath1147" d="M0,2 L14,6 L0,11 L0,2" fill="#323232" stroke="#323232" stroke-width="2"></path></marker><marker id="SvgjsMarker1170" markerWidth="16" markerHeight="12" refX="16" refY="6" viewBox="0 0 16 12" orient="auto" markerUnits="userSpaceOnUse" stroke-dasharray="0,0"><path id="SvgjsPath1171" d="M0,2 L14,6 L0,11 L0,2" fill="#323232" stroke="#323232" stroke-width="2"></path></marker><marker id="SvgjsMarker1174" markerWidth="16" markerHeight="12" refX="16" refY="6" viewBox="0 0 16 12" orient="auto" markerUnits="userSpaceOnUse" stroke-dasharray="0,0"><path id="SvgjsPath1175" d="M0,2 L14,6 L0,11 L0,2" fill="#323232" stroke="#323232" stroke-width="2"></path></marker><marker id="SvgjsMarker1184" markerWidth="16" markerHeight="12" refX="16" refY="6" viewBox="0 0 16 12" orient="auto" markerUnits="userSpaceOnUse" stroke-dasharray="0,0"><path id="SvgjsPath1185" d="M0,2 L14,6 L0,11 L0,2" fill="#323232" stroke="#323232" stroke-width="2"></path></marker><marker id="SvgjsMarker1188" markerWidth="16" markerHeight="12" refX="16" refY="6" viewBox="0 0 16 12" orient="auto" markerUnits="userSpaceOnUse" stroke-dasharray="0,0"><path id="SvgjsPath1189" d="M0,2 L14,6 L0,11 L0,2" fill="#323232" stroke="#323232" stroke-width="2"></path></marker><marker id="SvgjsMarker1210" markerWidth="16" markerHeight="12" refX="16" refY="6" viewBox="0 0 16 12" orient="auto" markerUnits="userSpaceOnUse" stroke-dasharray="0,0"><path id="SvgjsPath1211" d="M0,2 L14,6 L0,11 L0,2" fill="#323232" stroke="#323232" stroke-width="2"></path></marker><marker id="SvgjsMarker1220" markerWidth="16" markerHeight="12" refX="16" refY="6" viewBox="0 0 16 12" orient="auto" markerUnits="userSpaceOnUse" stroke-dasharray="0,0"><path id="SvgjsPath1221" d="M0,2 L14,6 L0,11 L0,2" fill="#323232" stroke="#323232" stroke-width="2"></path></marker><marker id="SvgjsMarker1230" markerWidth="16" markerHeight="12" refX="16" refY="6" viewBox="0 0 16 12" orient="auto" markerUnits="userSpaceOnUse" stroke-dasharray="0,0"><path id="SvgjsPath1231" d="M0,2 L14,6 L0,11 L0,2" fill="#323232" stroke="#323232" stroke-width="2"></path></marker></defs><g id="SvgjsG1080" transform="translate(1367.3333740234375,25.010404109954834)"><path id="SvgjsPath1081" d="M 0 0L 446 0L 446 629L 0 629Z" stroke-dasharray="10,6" stroke="rgba(50,50,50,1)" stroke-width="2" fill-opacity="1" fill="#ffffff"></path><g id="SvgjsG1082"><text id="SvgjsText1083" font-family="微软雅黑" text-anchor="middle" font-size="13px" width="426px" fill="#323232" font-weight="400" align="middle" lineHeight="125%" anchor="middle" family="微软雅黑" size="13px" weight="400" font-style="" opacity="1" y="304.875" transform="rotate(0)"></text></g></g><g id="SvgjsG1084" transform="translate(25.000045776367188,25.010404109954834)"><path id="SvgjsPath1085" d="M 0 0L 935 0L 935 629L 0 629Z" stroke-dasharray="10,6" stroke="rgba(50,50,50,1)" stroke-width="2" fill-opacity="1" fill="#ffffff"></path><g id="SvgjsG1086"><text id="SvgjsText1087" font-family="微软雅黑" text-anchor="middle" font-size="13px" width="915px" fill="#323232" font-weight="400" align="middle" lineHeight="125%" anchor="middle" family="微软雅黑" size="13px" weight="400" font-style="" opacity="1" y="304.875" transform="rotate(0)"></text></g></g><g id="SvgjsG1088" transform="translate(78.83338165283203,44.34374761581421)"><path id="SvgjsPath1089" d="M 0 4Q 0 0 4 0L 234 0Q 238 0 238 4L 238 63Q 238 67 234 67L 4 67Q 0 67 0 63Z" stroke="rgba(50,50,50,1)" stroke-width="2" fill-opacity="1" fill="#e0e0e0"></path><g id="SvgjsG1090"><text id="SvgjsText1091" font-family="&quot;Lucida Console&quot;" text-anchor="middle" font-size="18px" width="218px" fill="#323232" font-weight="400" align="middle" lineHeight="125%" anchor="middle" family="&quot;Lucida Console&quot;" size="18px" weight="400" font-style="" opacity="1" y="20.25" transform="rotate(0)"><tspan id="SvgjsTspan1092" dy="22" x="119"><tspan id="SvgjsTspan1093" style="text-decoration:;">start</tspan></tspan></text></g></g><g id="SvgjsG1094" transform="translate(78.83338165283203,164.3437476158142)"><path id="SvgjsPath1095" d="M 0 4Q 0 0 4 0L 234 0Q 238 0 238 4L 238 63Q 238 67 234 67L 4 67Q 0 67 0 63Z" stroke="rgba(50,50,50,1)" stroke-width="2" fill-opacity="1" fill="#e0e0e0"></path><g id="SvgjsG1096"><text id="SvgjsText1097" font-family="&quot;Lucida Console&quot;" text-anchor="middle" font-size="18px" width="218px" fill="#323232" font-weight="400" align="middle" lineHeight="125%" anchor="middle" family="&quot;Lucida Console&quot;" size="18px" weight="400" font-style="" opacity="1" y="20.25" transform="rotate(0)"><tspan id="SvgjsTspan1098" dy="22" x="119"><tspan id="SvgjsTspan1099" style="text-decoration:;">实例化bean</tspan></tspan></text></g></g><g id="SvgjsG1100"><path id="SvgjsPath1101" d="M197.83338165283203 111.34374761581421L197.83338165283203 137.8437476158142L197.83338165283203 137.8437476158142L197.83338165283203 164.3437476158142" stroke="#323232" stroke-width="2" fill="none" marker-end="url(#SvgjsMarker1102)"></path></g><g id="SvgjsG1104" transform="translate(78.83338165283203,282.3437476158142)"><path id="SvgjsPath1105" d="M 0 4Q 0 0 4 0L 234 0Q 238 0 238 4L 238 63Q 238 67 234 67L 4 67Q 0 67 0 63Z" stroke="rgba(50,50,50,1)" stroke-width="2" fill-opacity="1" fill="#e0e0e0"></path><g id="SvgjsG1106"><text id="SvgjsText1107" font-family="&quot;Lucida Console&quot;" text-anchor="middle" font-size="18px" width="218px" fill="#323232" font-weight="400" align="middle" lineHeight="125%" anchor="middle" family="&quot;Lucida Console&quot;" size="18px" weight="400" font-style="" opacity="1" y="20.25" transform="rotate(0)"><tspan id="SvgjsTspan1108" dy="22" x="119"><tspan id="SvgjsTspan1109" style="text-decoration:;">BeanWrapper</tspan></tspan></text></g></g><g id="SvgjsG1110" transform="translate(438.83338165283203,277.8437476158142)"><path id="SvgjsPath1111" d="M 21.119999999999997 53.199999999999996C -17.6 38 7.04 26.599999999999998 15.84 22.8C 12.32 3.8000000000000003 56.32 0 73.92 7.6000000000000005C 88 -3.8000000000000003 132 0 132 11.4C 167.2 7.6000000000000005 181.28 22.8 167.2 41.800000000000004C 179.52 57 167.2 76 126.72 68.4C 117.92 78.28 82.72 78.28 73.92 68.4C 56.32 76 21.119999999999997 72.2 21.119999999999997 53.199999999999996Z" stroke="rgba(50,50,50,1)" stroke-width="2" fill-opacity="1" fill="#ffffff"></path><g id="SvgjsG1112"><text id="SvgjsText1113" font-family="微软雅黑" text-anchor="middle" font-size="13px" width="156px" fill="#323232" font-weight="400" align="middle" lineHeight="125%" anchor="middle" family="微软雅黑" size="13px" weight="400" font-style="" opacity="1" y="28.375" transform="rotate(0)"><tspan id="SvgjsTspan1114" dy="16" x="88"><tspan id="SvgjsTspan1115" style="text-decoration:;">设置属性值</tspan></tspan></text></g></g><g id="SvgjsG1116"><path id="SvgjsPath1117" d="M197.83338165283203 231.3437476158142L197.83338165283203 256.8437476158142L197.83338165283203 256.8437476158142L197.83338165283203 282.3437476158142" stroke="#323232" stroke-width="2" fill="none" marker-end="url(#SvgjsMarker1118)"></path></g><g id="SvgjsG1120"><path id="SvgjsPath1121" d="M316.83338165283203 315.8437476158142L377.83338165283203 315.8437476158142L377.83338165283203 315.8437476158142L438.83338165283203 315.8437476158142" stroke="#323232" stroke-width="2" fill="none" marker-end="url(#SvgjsMarker1122)"></path></g><g id="SvgjsG1124" transform="translate(78.83338165283203,401.6770758628845)"><path id="SvgjsPath1125" d="M 0 48.5L 119 0L 238 48.5L 119 97Z" stroke="rgba(50,50,50,1)" stroke-width="2" fill-opacity="1" fill="#f5f5f5"></path><g id="SvgjsG1126"><text id="SvgjsText1127" font-family="微软雅黑" text-anchor="middle" font-size="13px" width="218px" fill="#323232" font-weight="400" align="middle" lineHeight="125%" anchor="middle" family="微软雅黑" size="13px" weight="400" font-style="" opacity="1" y="31.36" transform="rotate(0)"><tspan id="SvgjsTspan1128" dy="16" x="119"><tspan id="SvgjsTspan1129" style="text-decoration:;">检测Aware相关接口</tspan></tspan><tspan id="SvgjsTspan1130" dy="16" x="119"><tspan id="SvgjsTspan1131" style="text-decoration:;">并设置依赖</tspan></tspan></text></g></g><g id="SvgjsG1132"><path id="SvgjsPath1133" d="M539.153381652832 353.8437476158142L539.153381652832 450.1770758628845L316.83338165283203 450.1770758628845" stroke="#323232" stroke-width="2" fill="none" marker-end="url(#SvgjsMarker1134)"></path></g><g id="SvgjsG1136" transform="translate(78.83338165283203,552.3437476158142)"><path id="SvgjsPath1137" d="M 0 4Q 0 0 4 0L 234 0Q 238 0 238 4L 238 63Q 238 67 234 67L 4 67Q 0 67 0 63Z" stroke="rgba(50,50,50,1)" stroke-width="2" fill-opacity="1" fill="#e0e0e0"></path><g id="SvgjsG1138"><text id="SvgjsText1139" font-family="&quot;Lucida Console&quot;" text-anchor="middle" font-size="18px" width="218px" fill="#323232" font-weight="400" align="middle" lineHeight="125%" anchor="middle" family="&quot;Lucida Console&quot;" size="18px" weight="400" font-style="" opacity="1" y="9.25" transform="rotate(0)"><tspan id="SvgjsTspan1140" dy="22" x="119"><tspan id="SvgjsTspan1141" style="text-decoration:;">BeanPostProcessor</tspan></tspan><tspan id="SvgjsTspan1142" dy="22" x="119"><tspan id="SvgjsTspan1143" style="text-decoration:;">(前置处理)</tspan></tspan></text></g></g><g id="SvgjsG1144"><path id="SvgjsPath1145" d="M197.83338165283203 498.6770758628845L197.83338165283203 525.5104117393494L197.83338165283203 525.5104117393494L197.83338165283203 552.3437476158142" stroke="#323232" stroke-width="2" fill="none" marker-end="url(#SvgjsMarker1146)"></path></g><g id="SvgjsG1148" transform="translate(389.83338165283203,531.1770796775818)"><path id="SvgjsPath1149" d="M 0 4Q 0 0 4 0L 234 0Q 238 0 238 4L 238 105.33333587646484Q 238 109.33333587646484 234 109.33333587646484L 4 109.33333587646484Q 0 109.33333587646484 0 105.33333587646484Z" stroke="rgba(50,50,50,1)" stroke-width="2" fill-opacity="1" fill="#e0e0e0"></path><g id="SvgjsG1150"><text id="SvgjsText1151" font-family="&quot;Lucida Console&quot;" text-anchor="middle" font-size="18px" width="218px" fill="#323232" font-weight="400" align="middle" lineHeight="125%" anchor="middle" family="&quot;Lucida Console&quot;" size="18px" weight="400" font-style="" opacity="1" y="8.416667938232422" transform="rotate(0)"><tspan id="SvgjsTspan1152" dy="22" x="119"><tspan id="SvgjsTspan1153" style="text-decoration:;">初始化逻辑</tspan></tspan><tspan id="SvgjsTspan1154" dy="22" x="119"><tspan id="SvgjsTspan1155" style="text-decoration:;">InitializingBean</tspan></tspan><tspan id="SvgjsTspan1156" dy="22" x="119"><tspan id="SvgjsTspan1157" style="text-decoration:;">or</tspan></tspan><tspan id="SvgjsTspan1158" dy="22" x="119"><tspan id="SvgjsTspan1159" style="text-decoration:;">init-method</tspan></tspan></text></g></g><g id="SvgjsG1160" transform="translate(692.1667098999023,552.3437476158142)"><path id="SvgjsPath1161" d="M 0 4Q 0 0 4 0L 234 0Q 238 0 238 4L 238 63Q 238 67 234 67L 4 67Q 0 67 0 63Z" stroke="rgba(50,50,50,1)" stroke-width="2" fill-opacity="1" fill="#e0e0e0"></path><g id="SvgjsG1162"><text id="SvgjsText1163" font-family="&quot;Lucida Console&quot;" text-anchor="middle" font-size="18px" width="218px" fill="#323232" font-weight="400" align="middle" lineHeight="125%" anchor="middle" family="&quot;Lucida Console&quot;" size="18px" weight="400" font-style="" opacity="1" y="9.25" transform="rotate(0)"><tspan id="SvgjsTspan1164" dy="22" x="119"><tspan id="SvgjsTspan1165" style="text-decoration:;">BeanPostProcessor</tspan></tspan><tspan id="SvgjsTspan1166" dy="22" x="119"><tspan id="SvgjsTspan1167" style="text-decoration:;">(后置处理)</tspan></tspan></text></g></g><g id="SvgjsG1168"><path id="SvgjsPath1169" d="M316.83338165283203 585.8437476158142L353.33338165283203 585.8437476158142L353.33338165283203 585.8437476158142L389.83338165283203 585.8437476158142" stroke="#323232" stroke-width="2" fill="none" marker-end="url(#SvgjsMarker1170)"></path></g><g id="SvgjsG1172"><path id="SvgjsPath1173" d="M627.833381652832 585.8437476158142L660.0000457763672 585.8437476158142L660.0000457763672 585.8437476158142L692.1667098999023 585.8437476158142" stroke="#323232" stroke-width="2" fill="none" marker-end="url(#SvgjsMarker1174)"></path></g><g id="SvgjsG1176" transform="translate(1020.1667098999023,306.01040410995483)"><path id="SvgjsPath1177" d="M 0 4Q 0 0 4 0L 234 0Q 238 0 238 4L 238 63Q 238 67 234 67L 4 67Q 0 67 0 63Z" stroke="rgba(50,50,50,1)" stroke-width="2" fill-opacity="1" fill="#e0e0e0"></path><g id="SvgjsG1178"><text id="SvgjsText1179" font-family="&quot;Lucida Console&quot;" text-anchor="middle" font-size="18px" width="218px" fill="#323232" font-weight="400" align="middle" lineHeight="125%" anchor="middle" family="&quot;Lucida Console&quot;" size="18px" weight="400" font-style="" opacity="1" y="20.25" transform="rotate(0)"><tspan id="SvgjsTspan1180" dy="22" x="119"><tspan id="SvgjsTspan1181" style="text-decoration:;">实例化bean</tspan></tspan></text></g></g><g id="SvgjsG1182"><path id="SvgjsPath1183" d="M960.0000457763672 339.51040410995483L990.0833778381348 339.51040410995483L990.0833778381348 339.51040410995483L1020.1667098999023 339.51040410995483" stroke="#323232" stroke-width="2" fill="none" marker-end="url(#SvgjsMarker1184)"></path></g><g id="SvgjsG1186"><path id="SvgjsPath1187" d="M1258.1667098999023 339.51040410995483L1312.75004196167 339.51040410995483L1312.75004196167 339.51040410995483L1367.3333740234375 339.51040410995483" stroke="#323232" stroke-width="2" fill="none" marker-end="url(#SvgjsMarker1188)"></path></g><g id="SvgjsG1190" transform="translate(1465.1667098999023,58.010404109954834)"><path id="SvgjsPath1191" d="M 0 4Q 0 0 4 0L 259.16666412353516 0Q 263.16666412353516 0 263.16666412353516 4L 263.16666412353516 122.00001001358032Q 263.16666412353516 126.00001001358032 259.16666412353516 126.00001001358032L 4 126.00001001358032Q 0 126.00001001358032 0 122.00001001358032Z" stroke="rgba(50,50,50,1)" stroke-width="2" fill-opacity="1" fill="#e0e0e0"></path><g id="SvgjsG1192"><text id="SvgjsText1193" font-family="&quot;Lucida Console&quot;" text-anchor="middle" font-size="18px" width="244px" fill="#323232" font-weight="400" align="middle" lineHeight="125%" anchor="middle" family="&quot;Lucida Console&quot;" size="18px" weight="400" font-style="" opacity="1" y="16.75000500679016" transform="rotate(0)"><tspan id="SvgjsTspan1194" dy="22" x="132"><tspan id="SvgjsTspan1195" style="text-decoration:;">定义销毁逻辑</tspan></tspan><tspan id="SvgjsTspan1196" dy="22" x="132"><tspan id="SvgjsTspan1197" style="text-decoration:;">DisposableBean</tspan></tspan><tspan id="SvgjsTspan1198" dy="22" x="132"><tspan id="SvgjsTspan1199" style="text-decoration:;">or</tspan></tspan><tspan id="SvgjsTspan1200" dy="22" x="132"><tspan id="SvgjsTspan1201" style="text-decoration:;">destroy-method</tspan></tspan></text></g></g><g id="SvgjsG1202" transform="translate(1477.75004196167,255.01040410995483)"><path id="SvgjsPath1203" d="M 0 4Q 0 0 4 0L 234 0Q 238 0 238 4L 238 63Q 238 67 234 67L 4 67Q 0 67 0 63Z" stroke="rgba(50,50,50,1)" stroke-width="2" fill-opacity="1" fill="#e0e0e0"></path><g id="SvgjsG1204"><text id="SvgjsText1205" font-family="&quot;Lucida Console&quot;" text-anchor="middle" font-size="18px" width="218px" fill="#323232" font-weight="400" align="middle" lineHeight="125%" anchor="middle" family="&quot;Lucida Console&quot;" size="18px" weight="400" font-style="" opacity="1" y="20.25" transform="rotate(0)"><tspan id="SvgjsTspan1206" dy="22" x="119"><tspan id="SvgjsTspan1207" style="text-decoration:;">使用bean</tspan></tspan></text></g></g><g id="SvgjsG1208"><path id="SvgjsPath1209" d="M1596.75004196167 184.01041412353516L1596.75004196167 219.510409116745L1596.75004196167 219.510409116745L1596.75004196167 255.01040410995483" stroke="#323232" stroke-width="2" fill="none" marker-end="url(#SvgjsMarker1210)"></path></g><g id="SvgjsG1212" transform="translate(1477.75004196167,406.01040410995483)"><path id="SvgjsPath1213" d="M 0 4Q 0 0 4 0L 234 0Q 238 0 238 4L 238 63Q 238 67 234 67L 4 67Q 0 67 0 63Z" stroke="rgba(50,50,50,1)" stroke-width="2" fill-opacity="1" fill="#e0e0e0"></path><g id="SvgjsG1214"><text id="SvgjsText1215" font-family="&quot;Lucida Console&quot;" text-anchor="middle" font-size="18px" width="218px" fill="#323232" font-weight="400" align="middle" lineHeight="125%" anchor="middle" family="&quot;Lucida Console&quot;" size="18px" weight="400" font-style="" opacity="1" y="20.25" transform="rotate(0)"><tspan id="SvgjsTspan1216" dy="22" x="119"><tspan id="SvgjsTspan1217" style="text-decoration:;">回调销毁方法</tspan></tspan></text></g></g><g id="SvgjsG1218"><path id="SvgjsPath1219" d="M1596.75004196167 322.01040410995483L1596.75004196167 364.01040410995483L1596.75004196167 364.01040410995483L1596.75004196167 406.01040410995483" stroke="#323232" stroke-width="2" fill="none" marker-end="url(#SvgjsMarker1220)"></path></g><g id="SvgjsG1222" transform="translate(1477.75004196167,552.3437476158142)"><path id="SvgjsPath1223" d="M 0 4Q 0 0 4 0L 234 0Q 238 0 238 4L 238 63Q 238 67 234 67L 4 67Q 0 67 0 63Z" stroke="rgba(50,50,50,1)" stroke-width="2" fill-opacity="1" fill="#e0e0e0"></path><g id="SvgjsG1224"><text id="SvgjsText1225" font-family="&quot;Lucida Console&quot;" text-anchor="middle" font-size="18px" width="218px" fill="#323232" font-weight="400" align="middle" lineHeight="125%" anchor="middle" family="&quot;Lucida Console&quot;" size="18px" weight="400" font-style="" opacity="1" y="20.25" transform="rotate(0)"><tspan id="SvgjsTspan1226" dy="22" x="119"><tspan id="SvgjsTspan1227" style="text-decoration:;">bean结束</tspan></tspan></text></g></g><g id="SvgjsG1228"><path id="SvgjsPath1229" d="M1596.75004196167 473.01040410995483L1596.75004196167 512.6770758628845L1596.75004196167 512.6770758628845L1596.75004196167 552.3437476158142" stroke="#323232" stroke-width="2" fill="none" marker-end="url(#SvgjsMarker1230)"></path></g></svg>