<svg id="SvgjsSvg1544" width="865.0000610351562" height="320" xmlns="http://www.w3.org/2000/svg" version="1.1" xmlns:xlink="http://www.w3.org/1999/xlink" xmlns:svgjs="http://svgjs.com/svgjs"><defs id="SvgjsDefs1545"><marker id="SvgjsMarker1568" markerWidth="16" markerHeight="12" refX="16" refY="6" viewBox="0 0 16 12" orient="auto" markerUnits="userSpaceOnUse" stroke-dasharray="0,0"><path id="SvgjsPath1569" d="M0,2 L14,6 L0,11 L0,2" fill="#323232" stroke="#323232" stroke-width="2"></path></marker><marker id="SvgjsMarker1572" markerWidth="16" markerHeight="12" refX="16" refY="6" viewBox="0 0 16 12" orient="auto" markerUnits="userSpaceOnUse" stroke-dasharray="0,0"><path id="SvgjsPath1573" d="M0,2 L14,6 L0,11 L0,2" fill="#323232" stroke="#323232" stroke-width="2"></path></marker><pattern id="SvgjsPattern1576" x="0" y="0" width="141" height="129" patternUnits="userSpaceOnUse"><image id="SvgjsImage1577" xlink:href="https://iconsapi.com/5ee2741ce4b0b788a9347117.svg" width="141" height="129" preserveAspectRatio="none" crossOrigin="anonymous" x="0" y="0"></image></pattern><marker id="SvgjsMarker1580" markerWidth="16" markerHeight="12" refX="16" refY="6" viewBox="0 0 16 12" orient="auto" markerUnits="userSpaceOnUse" stroke-dasharray="0,0"><path id="SvgjsPath1581" d="M0,2 L14,6 L0,11 L0,2" fill="#323232" stroke="#323232" stroke-width="2"></path></marker><marker id="SvgjsMarker1584" markerWidth="16" markerHeight="12" refX="16" refY="6" viewBox="0 0 16 12" orient="auto" markerUnits="userSpaceOnUse" stroke-dasharray="0,0"><path id="SvgjsPath1585" d="M0,2 L14,6 L0,11 L0,2" fill="#323232" stroke="#323232" stroke-width="2"></path></marker></defs><g id="SvgjsG1546" transform="translate(202,25.000015258789062)"><path id="SvgjsPath1547" d="M 0 4Q 0 0 4 0L 173 0Q 177 0 177 4L 177 83Q 177 87 173 87L 4 87Q 0 87 0 83Z" stroke="rgba(50,50,50,1)" stroke-width="2" fill-opacity="1" fill="#ffffff"></path><g id="SvgjsG1548"><text id="SvgjsText1549" font-family="&quot;Lucida Console&quot;" text-anchor="middle" font-size="13px" width="157px" fill="#323232" font-weight="400" align="middle" lineHeight="125%" anchor="middle" family="&quot;Lucida Console&quot;" size="13px" weight="400" font-style="" opacity="1" y="25.875" transform="rotate(0)"><tspan id="SvgjsTspan1550" dy="16" x="88.5"><tspan id="SvgjsTspan1551" style="text-decoration:;">interface</tspan></tspan><tspan id="SvgjsTspan1552" dy="16" x="88.5"><tspan id="SvgjsTspan1553" style="text-decoration:;">（公共接口）</tspan></tspan></text></g></g><g id="SvgjsG1554" transform="translate(25,187.00001525878906)"><path id="SvgjsPath1555" d="M 0 4Q 0 0 4 0L 173 0Q 177 0 177 4L 177 83Q 177 87 173 87L 4 87Q 0 87 0 83Z" stroke="rgba(50,50,50,1)" stroke-width="2" fill-opacity="1" fill="#ffffff"></path><g id="SvgjsG1556"><text id="SvgjsText1557" font-family="&quot;Lucida Console&quot;" text-anchor="middle" font-size="13px" width="157px" fill="#323232" font-weight="400" align="middle" lineHeight="125%" anchor="middle" family="&quot;Lucida Console&quot;" size="13px" weight="400" font-style="" opacity="1" y="33.875" transform="rotate(0)"><tspan id="SvgjsTspan1558" dy="16" x="88.5"><tspan id="SvgjsTspan1559" style="text-decoration:;">real</tspan></tspan></text></g></g><g id="SvgjsG1560" transform="translate(379,187.00001525878906)"><path id="SvgjsPath1561" d="M 0 4Q 0 0 4 0L 173 0Q 177 0 177 4L 177 83Q 177 87 173 87L 4 87Q 0 87 0 83Z" stroke="rgba(50,50,50,1)" stroke-width="2" fill-opacity="1" fill="#ffffff"></path><g id="SvgjsG1562"><text id="SvgjsText1563" font-family="&quot;Lucida Console&quot;" text-anchor="middle" font-size="13px" width="157px" fill="#323232" font-weight="400" align="middle" lineHeight="125%" anchor="middle" family="&quot;Lucida Console&quot;" size="13px" weight="400" font-style="" opacity="1" y="33.875" transform="rotate(0)"><tspan id="SvgjsTspan1564" dy="16" x="88.5"><tspan id="SvgjsTspan1565" style="text-decoration:;">proxy</tspan></tspan></text></g></g><g id="SvgjsG1566"><path id="SvgjsPath1567" d="M113.5 187.00001525878906C 113.50000000000003 110.10632240950525 290.5 188.89370810807287 290.5 112.00001525878906" stroke="#323232" stroke-width="2" fill="none" marker-end="url(#SvgjsMarker1568)"></path></g><g id="SvgjsG1570"><path id="SvgjsPath1571" d="M467.5 187.00001525878906C 467.50000000000006 110.10632240950525 290.5 188.89370810807287 290.5 112.00001525878906" stroke="#323232" stroke-width="2" fill="none" marker-end="url(#SvgjsMarker1572)"></path></g><g id="SvgjsG1574" transform="translate(699,166.00001525878906)"><path id="SvgjsPath1575" d="M 0 0L 141 0L 141 129L 0 129Z" stroke="none" fill="url(#SvgjsPattern1576)"></path></g><g id="SvgjsG1578"><path id="SvgjsPath1579" d="M699 230.50001525878906L556 230.50001525878906" stroke="#323232" stroke-width="2" fill="none" marker-end="url(#SvgjsMarker1580)"></path></g><g id="SvgjsG1582"><path id="SvgjsPath1583" d="M202 230.50001525878906L379 230.50001525878906" stroke-dasharray="8,5" stroke="#323232" stroke-width="2" fill="none" marker-end="url(#SvgjsMarker1584)"></path></g></svg>