<svg id="SvgjsSvg1050" width="1010.0000305175781" height="407.00001525878906" xmlns="http://www.w3.org/2000/svg" version="1.1" xmlns:xlink="http://www.w3.org/1999/xlink" xmlns:svgjs="http://svgjs.com/svgjs"><defs id="SvgjsDefs1051"><marker id="SvgjsMarker1068" markerWidth="16" markerHeight="12" refX="16" refY="6" viewBox="0 0 16 12" orient="auto" markerUnits="userSpaceOnUse" stroke-dasharray="0,0"><path id="SvgjsPath1069" d="M0,2 L14,6 L0,11 L0,2" fill="#323232" stroke="#323232" stroke-width="2"></path></marker><marker id="SvgjsMarker1080" markerWidth="14" markerHeight="12" refX="16" refY="6" viewBox="0 0 14 12" orient="auto" markerUnits="userSpaceOnUse" stroke-dasharray="0,0"><path id="SvgjsPath1081" d="M1,1 L14,6 L1,11L1,1" fill="#ffffff" stroke="#323232" stroke-width="2"></path></marker><marker id="SvgjsMarker1092" markerWidth="20" markerHeight="12" refX="0" refY="6" viewBox="0 0 20 12" orient="auto" markerUnits="userSpaceOnUse" stroke-dasharray="0,0"><path id="SvgjsPath1093" d="M2,6 L10,2 L18,6 L10,10L2,6" fill="#323232" stroke="#323232" stroke-width="2"></path></marker></defs><g id="SvgjsG1052" transform="translate(24.999969482421875,24.99999237060547)"><path id="SvgjsPath1053" d="M 0 4Q 0 0 4 0L 233 0Q 237 0 237 4L 237 116Q 237 120 233 120L 4 120Q 0 120 0 116Z" stroke="rgba(50,50,50,1)" stroke-width="2" fill-opacity="1" fill="#e0e0e0"></path><g id="SvgjsG1054"><text id="SvgjsText1055" font-family="&quot;Lucida Console&quot;" text-anchor="middle" font-size="16px" width="217px" fill="#323232" font-weight="400" align="middle" lineHeight="125%" anchor="middle" family="&quot;Lucida Console&quot;" size="16px" weight="400" font-style="" opacity="1" y="48" transform="rotate(0)"><tspan id="SvgjsTspan1056" dy="20" x="118.5"><tspan id="SvgjsTspan1057" style="text-decoration:;">Client</tspan></tspan></text></g></g><g id="SvgjsG1058" transform="translate(382.9999694824219,24.99999237060547)"><path id="SvgjsPath1059" d="M 0 4Q 0 0 4 0L 233 0Q 237 0 237 4L 237 116Q 237 120 233 120L 4 120Q 0 120 0 116Z" stroke="rgba(50,50,50,1)" stroke-width="2" fill-opacity="1" fill="#e0e0e0"></path><g id="SvgjsG1060"><text id="SvgjsText1061" font-family="&quot;Lucida Console&quot;" text-anchor="middle" font-size="16px" width="217px" fill="#323232" font-weight="400" align="middle" lineHeight="125%" anchor="middle" family="&quot;Lucida Console&quot;" size="16px" weight="400" font-style="" opacity="1" y="38" transform="rotate(0)"><tspan id="SvgjsTspan1062" dy="20" x="118.5"><tspan id="SvgjsTspan1063" style="text-decoration:;">Target</tspan></tspan><tspan id="SvgjsTspan1064" dy="20" x="118.5"><tspan id="SvgjsTspan1065" style="text-decoration:;">(新接口)</tspan></tspan></text></g></g><g id="SvgjsG1066"><path id="SvgjsPath1067" d="M261.9999694824219 84.99999237060547L322.4999694824219 84.99999237060547L322.4999694824219 84.99999237060547L382.9999694824219 84.99999237060547" stroke="#323232" stroke-width="2" fill="none" marker-end="url(#SvgjsMarker1068)"></path></g><g id="SvgjsG1070" transform="translate(382.9999694824219,261.99999237060547)"><path id="SvgjsPath1071" d="M 0 4Q 0 0 4 0L 233 0Q 237 0 237 4L 237 116Q 237 120 233 120L 4 120Q 0 120 0 116Z" stroke="rgba(50,50,50,1)" stroke-width="2" fill-opacity="1" fill="#e0e0e0"></path><g id="SvgjsG1072"><text id="SvgjsText1073" font-family="&quot;Lucida Console&quot;" text-anchor="middle" font-size="16px" width="217px" fill="#323232" font-weight="400" align="middle" lineHeight="125%" anchor="middle" family="&quot;Lucida Console&quot;" size="16px" weight="400" font-style="" opacity="1" y="38" transform="rotate(0)"><tspan id="SvgjsTspan1074" dy="20" x="118.5"><tspan id="SvgjsTspan1075" style="text-decoration:;">Adapter</tspan></tspan><tspan id="SvgjsTspan1076" dy="20" x="118.5"><tspan id="SvgjsTspan1077" style="text-decoration:;">(适配器)</tspan></tspan></text></g></g><g id="SvgjsG1078"><path id="SvgjsPath1079" d="M501.4999694824219 261.99999237060547L501.4999694824219 203.49999237060547L501.4999694824219 203.49999237060547L501.4999694824219 144.99999237060547" stroke="#323232" stroke-width="2" fill="none" marker-end="url(#SvgjsMarker1080)"></path></g><g id="SvgjsG1082" transform="translate(747.9999694824219,261.99999237060547)"><path id="SvgjsPath1083" d="M 0 4Q 0 0 4 0L 233 0Q 237 0 237 4L 237 116Q 237 120 233 120L 4 120Q 0 120 0 116Z" stroke="rgba(50,50,50,1)" stroke-width="2" fill-opacity="1" fill="#e0e0e0"></path><g id="SvgjsG1084"><text id="SvgjsText1085" font-family="&quot;Lucida Console&quot;" text-anchor="middle" font-size="16px" width="217px" fill="#323232" font-weight="400" align="middle" lineHeight="125%" anchor="middle" family="&quot;Lucida Console&quot;" size="16px" weight="400" font-style="" opacity="1" y="38" transform="rotate(0)"><tspan id="SvgjsTspan1086" dy="20" x="118.5"><tspan id="SvgjsTspan1087" style="text-decoration:;">Adaptee</tspan></tspan><tspan id="SvgjsTspan1088" dy="20" x="118.5"><tspan id="SvgjsTspan1089" style="text-decoration:;">(旧接口)</tspan></tspan></text></g></g><g id="SvgjsG1090"><path id="SvgjsPath1091" d="M619.9999694824219 321.99999237060547L683.9999694824219 321.99999237060547L683.9999694824219 321.99999237060547L747.9999694824219 321.99999237060547" stroke-dasharray="8,5" stroke="#323232" stroke-width="2" fill="none" marker-start="url(#SvgjsMarker1092)"></path></g></svg>